<?xml version="1.0"?><svg width="700" height="700" xmlns="http://www.w3.org/2000/svg" xmlns:xlink="http://www.w3.org/1999/xlink">
 <title>red_eye</title>
 <defs>
  <linearGradient id="linearGradient18408">
   <stop stop-color="white" offset="0" id="stop18410"/>
   <stop stop-color="white" id="stop18412" offset="0.7"/>
   <stop stop-color="white" stop-opacity="0" offset="1" id="stop18414"/>
  </linearGradient>
  <linearGradient id="linearGradient13424">
   <stop stop-color="aqua" offset="0" id="stop13426"/>
   <stop stop-color="#0068e0" id="stop13428" offset="0.7"/>
   <stop stop-color="#0068e0" offset="0.94" id="stop13432"/>
   <stop stop-color="white" stop-opacity="0" offset="1" id="stop13430"/>
  </linearGradient>
  <linearGradient id="linearGradient12527">
   <stop stop-color="#00d4ff" offset="0" id="stop12529"/>
   <stop stop-color="#00d4ff" id="stop12535" offset="0.7"/>
   <stop stop-color="#00d4ff" stop-opacity="0" offset="0.96" id="stop13451"/>
   <stop stop-color="#00d4ff" stop-opacity="0" offset="1" id="stop12533"/>
  </linearGradient>
  <linearGradient id="linearGradient12517">
   <stop stop-color="#00c0ff" offset="0" id="stop12519"/>
   <stop stop-color="#00c0ff" id="stop12521" offset="0.7"/>
   <stop stop-color="#00c0ff" stop-opacity="0.133333" offset="1" id="stop12523"/>
  </linearGradient>
  <linearGradient id="linearGradient7982">
   <stop stop-color="black" id="stop7984" offset="0"/>
   <stop stop-color="black" offset="0.7" id="stop7990"/>
   <stop stop-color="#0093ff" stop-opacity="0" id="stop7986" offset="1"/>
  </linearGradient>
  <radialGradient r="322.94711" fy="351.99664" fx="348.00336" cy="351.99664" cx="348.00336" gradientUnits="userSpaceOnUse" id="radialGradient13441" xlink:href="#linearGradient13424"/>
  <radialGradient gradientTransform="matrix(1.004764,0,0,0.995259,-4.69225e-6,0)" r="321.25089" fy="353.68578" fx="346.35008" cy="353.68578" cx="346.35008" gradientUnits="userSpaceOnUse" id="radialGradient13443" xlink:href="#linearGradient12527"/>
  <radialGradient r="298.37482" fy="357.57569" fx="342.57419" cy="357.57569" cx="342.57419" gradientTransform="scale(1.01584,0.984407)" gradientUnits="userSpaceOnUse" id="radialGradient13445" xlink:href="#linearGradient12517"/>
  <radialGradient gradientTransform="scale(0.984205,1.016048)" r="261.96231" fy="346.4405" fx="353.58472" cy="346.4405" cx="353.58472" gradientUnits="userSpaceOnUse" id="radialGradient13447" xlink:href="#linearGradient12517"/>
  <radialGradient r="322.94711" fy="351.99664" fx="348.00336" cy="351.99664" cx="348.00336" gradientUnits="userSpaceOnUse" id="radialGradient13449" xlink:href="#linearGradient7982"/>
  <radialGradient r="322.94711" fy="351.99664" fx="348.00336" cy="351.99664" cx="348.00336" gradientUnits="userSpaceOnUse" id="radialGradient18406" xlink:href="#linearGradient18408"/>
 </defs>
 <metadata id="metadata7">image/svg+xmlIris2006-10-31Aur  lio A. HeckertAur  lio A. HeckertAur  lio A. Heckerthttp://aurium.cjb.netiris eye bluelight blue iris eye</metadata>
 <g>
  <title>Layer 1</title>
  <g transform="matrix(1.081283,0,0,1.081283,-26.82831,-30.36816) " id="g13434">
   <path fill="#ff0000" fill-rule="nonzero" stroke-width="13" stroke-linecap="round" stroke-linejoin="round" marker-start="none" marker-mid="none" marker-end="none" stroke-miterlimit="4" stroke-dashoffset="0" id="path1871" d="m670.9505,351.996643c0,178.358765 -144.588379,322.947083 -322.947144,322.947083c-178.358765,0 -322.947117,-144.588318 -322.947117,-322.947083c0,-178.358765 144.588352,-322.947113 322.947117,-322.947113c178.358765,0 322.947144,144.588348 322.947144,322.947113z"/>
   <path fill="#ff5656" fill-rule="nonzero" stroke-width="13" stroke-linecap="round" stroke-linejoin="round" marker-start="none" marker-mid="none" marker-end="none" stroke-miterlimit="4" stroke-dashoffset="0" d="m314.4375,32.28125c-0.148254,0.004009 -0.279449,0.074051 -0.375,0.1875c-0.09552,0.113449 -0.146271,0.259472 -0.125,0.40625c4.976929,47.352058 9.957092,94.707329 14.9375,142.0625c5.189941,49.366074 10.373779,98.731171 15.5625,148.09375c-12.804474,-91.124069 -25.599701,-182.251862 -38.40625,-273.375c-0.015656,-0.145351 -0.098969,-0.291161 -0.21875,-0.375c-0.119781,-0.083839 -0.264313,-0.09753 -0.40625,-0.0625c-0.250122,0.064461 -0.411713,0.306808 -0.375,0.5625c12.822754,91.238373 25.648071,182.479446 38.46875,273.71875c-16.319122,-92.544037 -32.65036,-185.079117 -48.96875,-277.625c-0.018005,-0.138031 -0.106689,-0.261181 -0.21875,-0.34375c-0.112061,-0.082569 -0.237823,-0.117432 -0.375,-0.09375c-0.27536,0.052971 -0.456635,0.317902 -0.40625,0.59375c16.347992,92.713791 32.713776,185.439575 49.0625,278.15625c-17.933838,-84.382797 -35.877228,-168.777679 -53.8125,-253.15625c-0.02771,-0.129204 -0.107025,-0.241943 -0.21875,-0.3125c-0.111725,-0.070557 -0.246429,-0.092987 -0.375,-0.0625c-0.129211,0.02771 -0.241943,0.107033 -0.3125,0.21875c-0.070557,0.111717 -0.092987,0.246429 -0.0625,0.375c17.894714,84.18782 35.789154,168.375488 53.6875,252.5625c-23.311646,-93.490799 -46.627319,-186.976608 -69.9375,-280.46875c-0.026459,-0.138142 -0.10083,-0.26709 -0.21875,-0.34375c-0.11792,-0.07666 -0.269257,-0.094391 -0.40625,-0.0625c-0.139435,0.032928 -0.272675,0.125599 -0.34375,0.25c-0.071106,0.124401 -0.073669,0.26939 -0.03125,0.40625c23.206268,93.075394 46.417175,186.144745 69.625,279.21875c-25.77832,-89.899643 -51.564575,-179.784821 -77.34375,-269.6875c-0.031311,-0.140411 -0.125092,-0.272369 -0.25,-0.34375c-0.124908,-0.071369 -0.269379,-0.07555 -0.40625,-0.03125c-0.134674,0.03838 -0.247528,0.125961 -0.3125,0.25c-0.064972,0.124039 -0.076355,0.273689 -0.03125,0.40625c25.82373,90.058105 51.645874,180.101135 77.46875,270.15625c-30.091064,-92.604721 -60.192047,-185.207535 -90.28125,-277.8125c-0.070938,-0.259899 -0.328583,-0.42263 -0.59375,-0.375c-0.146454,0.032619 -0.271896,0.118271 -0.34375,0.25c-0.071854,0.131729 -0.083115,0.2967 -0.03125,0.4375c30.160339,92.823975 60.311218,185.64502 90.46875,278.46875c-29.31076,-80.530106 -58.627594,-161.065491 -87.9375,-241.59375c-0.067291,-0.216301 -0.273956,-0.358383 -0.5,-0.34375c-0.157913,0.013603 -0.294373,0.113541 -0.375,0.25c-0.080627,0.136459 -0.095505,0.29261 -0.03125,0.4375c1.323273,3.635681 2.645554,7.27063 3.96875,10.90625c0.481247,1.322197 0.956253,2.646561 1.4375,3.96875c27.521759,75.619934 55.04245,151.225113 82.5625,226.84375c-36.718903,-90.883057 -73.437897,-181.775116 -110.15625,-272.65625c-0.321701,0.129601 -0.647552,0.244389 -0.96875,0.375c36.793396,91.066757 73.581085,182.123306 110.375,273.1875c-33.084198,-74.312469 -66.164093,-148.625366 -99.25,-222.9375c-0.825043,-1.853127 -1.643692,-3.709389 -2.46875,-5.5625c-0.092697,-0.219437 -0.331329,-0.33876 -0.5625,-0.28125c-0.142334,0.036163 -0.251724,0.147552 -0.3125,0.28125c-0.060776,0.133698 -0.066345,0.27523 0,0.40625c18.228027,40.940842 36.462067,81.874756 54.6875,122.8125c15.626617,35.103256 31.247009,70.209503 46.875,105.3125c-42.706177,-87.562836 -85.418213,-175.125656 -128.125,-262.6875c-0.085678,-0.19783 -0.284637,-0.32217 -0.5,-0.3125c-0.174667,0.009312 -0.318115,0.098911 -0.40625,0.25c-0.088135,0.151089 -0.109116,0.34338 -0.03125,0.5c42.512787,87.164093 85.019104,174.334854 127.53125,261.5c-43.978699,-82.70932 -87.959503,-165.414474 -131.9375,-248.125c-0.100891,-0.211594 -0.332703,-0.327492 -0.5625,-0.28125c-0.159637,0.032791 -0.307098,0.133087 -0.375,0.28125c-0.067917,0.148148 -0.048126,0.326408 0.03125,0.46875c44.155594,83.044556 88.312469,166.108078 132.46875,249.15625c-45.438721,-78.70636 -90.872559,-157.420715 -136.3125,-236.125c-0.007614,-0.014107 -0.022476,-0.018127 -0.03125,-0.03125c-0.016373,-0.033707 -0.039825,-0.065239 -0.0625,-0.09375c-0.040451,-0.037132 -0.106644,-0.071701 -0.15625,-0.09375c-0.091339,-0.056633 -0.169296,-0.104263 -0.28125,-0.09375c-0.177246,0.015472 -0.329254,0.12085 -0.40625,0.28125c-0.076996,0.1604 -0.067535,0.35202 0.03125,0.5c45.377777,78.596542 90.748505,157.186279 136.125,235.78125c-51.851196,-82.986404 -103.676758,-165.983185 -155.53125,-248.96875c-0.30098,0.187859 -0.605927,0.37368 -0.90625,0.5625c51.815521,82.922424 103.621185,165.858032 155.4375,248.78125c-54.231232,-80.40123 -108.457886,-160.820114 -162.6875,-241.21875c-0.125458,-0.199059 -0.369125,-0.288834 -0.59375,-0.21875c-0.161041,0.052101 -0.293976,0.181976 -0.34375,0.34375c-0.049774,0.161774 -0.010147,0.335129 0.09375,0.46875c54.144852,80.27298 108.264557,160.541718 162.40625,240.8125c-56.916687,-78.331467 -113.83786,-156.66716 -170.75,-235c-0.116913,-0.173203 -0.326279,-0.259407 -0.53125,-0.21875c-0.166428,0.044571 -0.287399,0.180946 -0.34375,0.34375c-0.056366,0.162804 -0.040756,0.330833 0.0625,0.46875c56.964935,78.405518 113.910309,156.84108 170.875,235.25c-59.137817,-75.695053 -118.267853,-151.400131 -177.40625,-227.09375c-1.014664,-1.298721 -2.01915,-2.605469 -3.03125,-3.90625c-0.281097,0.219231 -0.563385,0.436111 -0.84375,0.65625c60.082245,76.901932 120.169067,153.787125 180.25,230.6875c-62.271088,-74.210876 -124.540466,-148.412033 -186.8125,-222.625c-0.129883,-0.17392 -0.354233,-0.248711 -0.5625,-0.1875c-0.172256,0.048012 -0.292953,0.17231 -0.34375,0.34375c-0.050797,0.17144 -0.024536,0.365913 0.09375,0.5c62.305954,74.253387 124.601257,148.525146 186.90625,222.78125c-56.35437,-62.585602 -112.707626,-125.161575 -169.0625,-187.75c-3.336548,-3.705643 -6.663406,-7.419327 -10,-11.125c-0.134506,-0.16745 -0.360901,-0.230347 -0.5625,-0.15625c-0.157059,0.058838 -0.274796,0.180328 -0.3125,0.34375c-0.03772,0.163437 0.009613,0.347031 0.125,0.46875c3.32132,3.688705 6.647491,7.373688 9.96875,11.0625c0.013779,0.019623 0.01442,0.044815 0.03125,0.0625c21.330063,23.689438 42.665634,47.37558 64,71.0625c35.298737,39.212357 70.605774,78.416443 105.90625,117.625c-64.082642,-66.363007 -128.166794,-132.733612 -192.25,-199.09375c-0.118561,-0.129883 -0.295975,-0.189026 -0.46875,-0.15625c-0.195648,0.024414 -0.345917,0.156036 -0.40625,0.34375c-0.060333,0.187714 -0.019775,0.397415 0.125,0.53125c63.92923,66.200699 127.85257,132.39505 191.78125,198.59375c-67.700348,-65.37851 -135.389709,-130.743973 -203.09375,-196.125c-0.11911,-0.129028 -0.296043,-0.188004 -0.46875,-0.15625c-0.187866,0.037659 -0.353607,0.190765 -0.40625,0.375c-0.052643,0.18425 0.016632,0.368774 0.15625,0.5c67.736832,65.412674 135.480774,130.834991 203.21875,196.25c-68.789093,-61.938202 -137.586929,-123.875504 -206.375,-185.8125c-0.124969,-0.118408 -0.301407,-0.165466 -0.46875,-0.125c-0.184578,0.043869 -0.328987,0.190933 -0.375,0.375c-0.046021,0.184052 0.01403,0.374435 0.15625,0.5c68.62352,61.788834 137.250427,123.584961 205.875,185.375c-73.330658,-61.530945 -146.671524,-123.063919 -220,-184.59375c-0.04364,-0.037704 -0.103439,-0.072617 -0.15625,-0.09375c-1.421219,-1.192535 -2.832832,-2.396423 -4.25,-3.59375c-0.218979,0.259811 -0.43808,0.520737 -0.65625,0.78125c1.430847,1.193436 2.854019,2.396149 4.28125,3.59375c0.033073,0.045456 0.07692,0.091461 0.125,0.125c73.498047,61.672943 147.001495,123.356232 220.5,185.03125c-67.538666,-52.769867 -135.08783,-105.546631 -202.625,-158.3125c-0.114754,-0.090088 -0.263634,-0.124451 -0.40625,-0.09375c-0.188751,0.040588 -0.334549,0.186203 -0.375,0.375c-0.040451,0.188782 0.031952,0.385635 0.1875,0.5c67.600067,52.815018 135.184814,105.623627 202.78125,158.4375c-79.248703,-57.574585 -158.502686,-115.142365 -237.75,-172.71875c-0.202438,0.277145 -0.392174,0.565948 -0.59375,0.84375c79.089386,57.46199 158.163345,114.914825 237.25,172.375c-74.868134,-50.495819 -149.726318,-101.002365 -224.59375,-151.5c-0.026558,-0.018066 -0.064774,-0.018753 -0.09375,-0.03125c-2.438339,-1.644653 -4.874168,-3.292831 -7.3125,-4.9375c-0.107857,-0.079239 -0.242538,-0.112915 -0.375,-0.09375c-0.210411,0.033691 -0.364464,0.197296 -0.40625,0.40625c-0.041786,0.208969 0.037483,0.41922 0.21875,0.53125c77.717377,52.421036 155.437851,104.831665 233.15625,157.25c-71.50145,-44.682831 -142.998154,-89.382584 -214.5,-134.0625c-0.019478,-0.012405 -0.04171,-0.021835 -0.0625,-0.03125c-1.186363,-0.741333 -2.376137,-1.477432 -3.5625,-2.21875c-0.111488,-0.070465 -0.246681,-0.093002 -0.375,-0.0625c-0.197617,0.046036 -0.347282,0.205246 -0.375,0.40625c-0.027733,0.201004 0.07222,0.402191 0.25,0.5c1.198601,0.748962 2.395149,1.501038 3.59375,2.25c19.85405,12.406204 39.707825,24.813278 59.5625,37.21875c51.570114,32.222748 103.148254,64.432281 154.71875,96.65625c-75.066925,-43.339539 -150.154053,-86.661407 -225.21875,-130c-0.04718,-0.027451 -0.103447,-0.051941 -0.15625,-0.0625c-3.670319,-2.119034 -7.329643,-4.25592 -11,-6.375c-0.099319,-0.072113 -0.221573,-0.105453 -0.34375,-0.09375c-0.210876,0.036438 -0.371071,0.19516 -0.40625,0.40625c-0.035179,0.211075 0.062347,0.428391 0.25,0.53125c3.710442,2.142227 7.414597,4.295212 11.125,6.4375c0.020012,0.013046 0.040291,0.021042 0.0625,0.03125c74.922974,43.256775 149.829865,86.523529 224.75,129.78125c-77.966934,-41.456543 -155.941483,-82.92038 -233.90625,-124.375c-0.085533,-0.048141 -0.183388,-0.069885 -0.28125,-0.0625c-0.221336,0.017807 -0.393951,0.188507 -0.4375,0.40625c-0.043549,0.217743 0.052544,0.429688 0.25,0.53125c77.977203,41.461227 155.95813,82.943115 233.9375,124.40625c-27.230103,-13.280731 -54.458252,-26.563873 -81.6875,-39.84375c-58.010147,-28.29892 -116.013977,-56.609314 -174.03125,-84.90625c-0.125313,-0.06601 -0.272324,-0.077316 -0.40625,-0.03125c-0.211311,0.057861 -0.360893,0.250107 -0.375,0.46875c-0.014107,0.218613 0.110367,0.415466 0.3125,0.5c85.090073,41.501221 170.190109,82.997711 255.28125,124.5c-86.300674,-38.425903 -172.606384,-76.858124 -258.90625,-115.28125c-0.021259,-0.00946 -0.041241,-0.02179 -0.0625,-0.03125c-0.116531,-0.057556 -0.250549,-0.068726 -0.375,-0.03125c-0.21172,0.057404 -0.36087,0.249832 -0.375,0.46875c-0.014118,0.218903 0.109909,0.415863 0.3125,0.5c39.499092,17.586121 79.002731,35.160889 118.5,52.75c46.834457,20.859039 93.66153,41.737457 140.5,62.59375c-87.264267,-35.258759 -174.513504,-70.522797 -261.78125,-105.78125c-0.06731,-0.036987 -0.142071,-0.058334 -0.21875,-0.0625c-0.25972,-0.018799 -0.483261,0.150299 -0.53125,0.40625c-0.047989,0.255936 0.09486,0.517181 0.34375,0.59375c87.320602,35.279816 174.64679,70.563629 261.96875,105.84375c-82.519745,-30.034576 -165.042679,-60.059021 -247.5625,-90.09375c-3.16761,-1.152939 -6.332443,-2.315857 -9.5,-3.46875c-0.07935,-0.031387 -0.165359,-0.042145 -0.25,-0.03125c-0.259781,0.000854 -0.47575,0.210114 -0.5,0.46875c-0.02425,0.258667 0.151161,0.482132 0.40625,0.53125c86.004608,31.303101 172.023163,62.605133 258.03125,93.90625c-86.114914,-27.982635 -172.229996,-55.988739 -258.34375,-83.96875c-0.05994,-0.022247 -0.123581,-0.032867 -0.1875,-0.03125c-0.276138,-0.034515 -0.527981,0.161346 -0.5625,0.4375c-0.034519,0.276154 0.161362,0.527985 0.4375,0.5625c79.590866,25.860596 159.188675,51.70517 238.78125,77.5625c6.177979,2.007782 12.353119,4.02359 18.53125,6.03125c-92.050186,-26.395447 -184.107834,-52.79303 -276.15625,-79.1875c-0.101662,-0.032318 -0.210838,-0.032318 -0.3125,0c-0.22723,0.064941 -0.382381,0.263794 -0.375,0.5c0.007381,0.236206 0.175411,0.449371 0.40625,0.5c91.893005,26.349915 183.792709,52.711609 275.6875,79.0625c-94.063126,-23.455872 -188.123566,-46.922272 -282.1875,-70.375c-0.082088,-0.020355 -0.167912,-0.020355 -0.25,0c-0.261452,0.030792 -0.46875,0.267975 -0.46875,0.53125c0,0.263275 0.207298,0.469208 0.46875,0.5c94.11763,23.466125 188.226913,46.941772 282.34375,70.40625c-89.286026,-18.977966 -178.552933,-37.95813 -267.84375,-56.9375c-0.050098,-0.018616 -0.10284,-0.029175 -0.15625,-0.03125c-3.84465,-0.81723 -7.686668,-1.65155 -11.53125,-2.46875c-0.082069,-0.020538 -0.167931,-0.020538 -0.25,0c-0.228161,0.069519 -0.389881,0.293213 -0.375,0.53125c0.014881,0.238037 0.202461,0.428162 0.4375,0.46875c53.728394,11.420319 107.459824,22.826324 161.1875,34.25c39.511536,8.402893 79.019867,16.818787 118.53125,25.21875c-33.874115,-5.972412 -67.750244,-11.93457 -101.625,-17.90625c-62.116272,-10.957367 -124.231407,-21.922913 -186.34375,-32.875c-0.061979,-0.011353 -0.125521,-0.011353 -0.1875,0c-0.258221,0.041351 -0.445419,0.269867 -0.4375,0.53125c0.007919,0.261383 0.2085,0.474365 0.46875,0.5c79.326393,13.987396 158.647247,27.953705 237.96875,41.9375c16.573181,2.924255 33.144623,5.85791 49.71875,8.78125c-94.813141,-13.327759 -189.62265,-26.643372 -284.4375,-39.96875c-0.061981,-0.011444 -0.125519,-0.011444 -0.1875,0c-0.277561,0.018005 -0.47718,0.253235 -0.46875,0.53125c0.008419,0.278015 0.221859,0.49884 0.5,0.5c95.056351,13.359314 190.128113,26.705566 285.1875,40.0625c-4.54184,-0.477234 -9.08313,-0.960297 -13.625,-1.4375c-88.77977,-9.334106 -177.567093,-18.66922 -266.34375,-28c-0.051781,-0.007996 -0.104469,-0.007996 -0.15625,0c-0.284771,0.017273 -0.517262,0.24649 -0.5,0.53125c0.017262,0.28479 0.277729,0.517273 0.5625,0.5c93.327499,9.809082 186.643707,19.599457 279.96875,29.40625c-89.552628,-6.263245 -179.102753,-12.519073 -268.65625,-18.78125c-2.68745,-0.187927 -5.37505,-0.374573 -8.0625,-0.5625c-0.051769,-0.008057 -0.104481,-0.008057 -0.15625,0c-0.244999,0.059357 -0.398529,0.280273 -0.375,0.53125c0.023529,0.250977 0.216991,0.455963 0.46875,0.46875c91.989075,6.432495 183.979294,12.879059 275.96875,19.3125c-94.319733,-3.29187 -188.652466,-6.58139 -282.96875,-9.875c-0.031189,-0.002869 -0.062561,-0.002869 -0.09375,0c-0.284771,0.017273 -0.486012,0.27771 -0.46875,0.5625c0.017262,0.28479 0.246479,0.486023 0.53125,0.46875c94.357895,3.295074 188.732422,6.581696 283.09375,9.875c-94.459595,0 -188.914063,0 -283.375,0c-0.284771,0 -0.5,0.24646 -0.5,0.53125c0,0.28479 0.215229,0.5 0.5,0.5c94.481781,0 188.957062,0 283.4375,0c-97.756287,3.415039 -195.528778,6.836365 -293.28125,10.25c0.01125,0.342834 0.01893,0.68869 0.03125,1.03125c97.657509,-3.410156 195.311813,-6.811707 292.96875,-10.21875c-91.760529,6.413757 -183.521011,12.833496 -275.28125,19.25c-0.69812,0.048828 -1.39563,0.107422 -2.09375,0.15625c-0.200878,-0.013458 -0.406391,0.102997 -0.5,0.28125c-0.093609,0.178223 -0.062611,0.373505 0.0625,0.53125c0.125111,0.157745 0.336369,0.238068 0.53125,0.1875c0.655991,-0.045868 1.312759,-0.079132 1.96875,-0.125c0.028801,0.003174 0.06385,0.001801 0.09375,0c92.332611,-6.456543 184.667114,-12.916351 277,-19.375c-79.757645,8.383636 -159.527283,16.773773 -239.28125,25.15625c-1.426598,0.149933 -2.85466,0.287567 -4.28125,0.4375c-0.191521,-0.015961 -0.379173,0.079956 -0.46875,0.25c-0.089577,0.170044 -0.058968,0.382324 0.0625,0.53125c0.121483,0.148926 0.31543,0.209808 0.5,0.15625c1.42659,-0.149933 2.854652,-0.287567 4.28125,-0.4375c79.680756,-8.374786 159.378036,-16.749054 239.0625,-25.125c-38.113739,5.356628 -76.229034,10.705536 -114.34375,16.0625c-49.064331,6.892426 -98.127579,13.792572 -147.1875,20.6875c-0.069031,0.010803 -0.13163,0.027863 -0.1875,0.0625c-0.23703,0.072418 -0.383121,0.310516 -0.34375,0.5625c0.043152,0.276154 0.286362,0.449402 0.5625,0.40625c0.042301,-0.005951 0.082699,-0.025299 0.125,-0.03125c86.524826,-12.160309 173.039978,-24.310089 259.5625,-36.46875c-95.886963,16.909973 -191.768471,33.842407 -287.65625,50.75c-0.284769,0.051788 -0.458031,0.34021 -0.40625,0.625c0.051781,0.28479 0.308981,0.458038 0.59375,0.40625c96.272263,-16.975403 192.541016,-33.959808 288.8125,-50.9375c-94.510574,20.087067 -189.020157,40.161011 -283.53125,60.25c-0.20842,-0.00058 -0.387409,0.120605 -0.46875,0.3125c-0.081341,0.191895 -0.051579,0.413116 0.09375,0.5625c0.145329,0.149414 0.36845,0.20105 0.5625,0.125c94.492065,-20.08493 189.003723,-40.166962 283.5,-60.25c-93.43959,23.29538 -186.870483,46.577301 -280.3125,69.875c-0.192219,0.031708 -0.347599,0.157959 -0.40625,0.34375c-0.058651,0.18576 -0.014179,0.394928 0.125,0.53125c0.139172,0.136353 0.346722,0.187469 0.53125,0.125c93.285126,-23.258575 186.561096,-46.493774 279.84375,-69.75c-88.239151,25.30307 -176.479507,50.604065 -264.71875,75.90625c-0.188221,0.036774 -0.354919,0.190216 -0.40625,0.375c-0.051331,0.184784 0.01395,0.371429 0.15625,0.5c0.1423,0.128571 0.3526,0.163513 0.53125,0.09375c7.98011,-2.288269 15.95739,-4.58667 23.9375,-6.875c80.441193,-23.066162 160.873901,-46.12149 241.3125,-69.1875c-87.627304,28.476227 -175.245102,56.964813 -262.875,85.4375c-0.267509,0.086304 -0.430038,0.357483 -0.34375,0.625c0.086288,0.267517 0.388741,0.430054 0.65625,0.34375c87.495163,-28.428925 174.976212,-56.880005 262.46875,-85.3125c-91.920227,33.458405 -183.826263,66.917206 -275.75,100.375c0.118759,0.327545 0.192719,0.672943 0.3125,1c91.968155,-33.473419 183.937302,-66.936462 275.90625,-100.40625c-5.719513,2.310944 -11.436798,4.626556 -17.15625,6.9375c-83.925446,33.902893 -167.854263,67.778809 -251.78125,101.6875c-0.267509,0.103546 -0.3848,0.419983 -0.28125,0.6875c0.10355,0.267517 0.388741,0.384796 0.65625,0.28125c3.197842,-1.292023 6.395931,-2.582977 9.59375,-3.875c86.408493,-34.911316 172.812622,-69.807068 259.21875,-104.71875c-79.823975,35.540405 -159.644104,71.084747 -239.46875,106.625c-6.705948,2.985626 -13.418808,5.951721 -20.125,8.9375c-0.186932,0.059143 -0.314671,0.212341 -0.34375,0.40625c-0.029079,0.193909 0.057388,0.388611 0.21875,0.5c0.161362,0.111359 0.36026,0.127197 0.53125,0.03125c86.853745,-38.66983 173.708038,-77.332886 260.5625,-116c-56.241119,27.429962 -112.480377,54.853333 -168.71875,82.28125c-19.479202,9.499939 -38.958687,18.999542 -58.4375,28.5c-2.198463,1.072235 -4.395271,2.146484 -6.59375,3.21875c-0.250252,0.112183 -0.362183,0.406006 -0.25,0.65625c0.112183,0.250244 0.405998,0.362183 0.65625,0.25c2.210678,-1.078217 4.414307,-2.171753 6.625,-3.25c48.99852,-23.898163 98.000137,-47.791046 147,-71.6875c26.467438,-12.910583 52.939728,-25.809601 79.40625,-38.71875c-83.291748,44.290192 -166.582535,88.587616 -249.875,132.875c-0.250252,0.138062 -0.356819,0.437256 -0.21875,0.6875c0.138069,0.250244 0.468498,0.356812 0.71875,0.21875c83.346024,-44.315857 166.685944,-88.650085 250.03125,-132.96875c-73.171036,42.246277 -146.326447,84.503265 -219.5,126.75c-4.728653,2.730103 -9.458832,5.457397 -14.1875,8.1875c-0.241623,0.138062 -0.325569,0.445892 -0.1875,0.6875c0.138069,0.241608 0.445877,0.325562 0.6875,0.1875c77.959305,-45.009766 155.916107,-90.021332 233.875,-135.03125c-26.56366,16.599152 -53.121307,33.211212 -79.6875,49.8125c-47.249664,29.525116 -94.505539,59.040863 -141.75,88.5625c-0.05825,0.036682 -0.119217,0.071869 -0.15625,0.125c-2.392227,1.494843 -4.795303,2.973938 -7.1875,4.46875c-0.171249,0.084991 -0.28212,0.246338 -0.28125,0.4375c0.00087,0.191162 0.109238,0.385345 0.28125,0.46875c0.17202,0.083435 0.3806,0.055206 0.53125,-0.0625c76.241241,-47.640778 152.504669,-95.293243 228.75,-142.9375c-51.405823,34.676147 -102.813553,69.351715 -154.21875,104.03125c-24.218597,16.333313 -48.438072,32.664612 -72.65625,49c-0.01165,0.007751 -0.020447,0.022705 -0.03125,0.03125c-2.531616,1.707642 -5.062119,3.417419 -7.59375,5.125c-0.180267,0.086731 -0.284828,0.268738 -0.28125,0.46875c0.003578,0.200012 0.129242,0.38855 0.3125,0.46875c0.183258,0.0802 0.381851,0.039307 0.53125,-0.09375c2.543617,-1.715698 5.081383,-3.440491 7.625,-5.15625c75.716095,-51.071167 151.439636,-102.145416 227.15625,-153.21875c-66.938232,48.634186 -133.874023,97.272705 -200.8125,145.90625c-0.012749,0.007935 -0.019432,0.022278 -0.03125,0.03125c-3.957741,2.875488 -7.917297,5.749573 -11.875,8.625c-0.167747,0.095032 -0.265701,0.27655 -0.25,0.46875c0.015701,0.192139 0.131538,0.370911 0.3125,0.4375c0.180946,0.066589 0.394737,0.011169 0.53125,-0.125c70.861404,-51.483826 141.704956,-102.956177 212.5625,-154.4375c-68.533752,53.549103 -137.057617,107.109955 -205.59375,160.65625c-6.74852,5.272766 -13.501343,10.539856 -20.25,15.8125c-0.193771,0.090088 -0.296471,0.286865 -0.28125,0.5c0.015221,0.213196 0.139137,0.407104 0.34375,0.46875c0.204613,0.061646 0.432083,-0.01825 0.5625,-0.1875c6.742599,-5.267883 13.476288,-10.544861 20.21875,-15.8125c68.374069,-53.419678 136.77948,-106.827454 205.15625,-160.25c-74.93161,62.875336 -149.878906,125.717407 -224.8125,188.59375c0.227547,0.27179 0.459068,0.541504 0.6875,0.8125c74.910934,-62.8573 149.836609,-125.706329 224.75,-188.5625c-70.559509,63.529572 -141.126434,127.029022 -211.6875,190.5625c-0.215736,0.18988 -0.252342,0.534241 -0.0625,0.75c0.18985,0.215759 0.534264,0.22113 0.75,0.03125c70.670868,-63.632355 141.330658,-127.27301 212,-190.90625c-66.689362,64.404144 -133.371735,128.816284 -200.0625,193.21875c-1.07045,1.033691 -2.148308,2.060059 -3.21875,3.09375c-0.155159,0.12207 -0.23101,0.307434 -0.1875,0.5c0.043503,0.192566 0.213676,0.362732 0.40625,0.40625c0.192574,0.043457 0.37793,-0.032349 0.5,-0.1875c1.065201,-1.028687 2.122307,-2.065125 3.1875,-3.09375c66.520737,-64.238281 133.043182,-128.452454 199.5625,-192.6875c-67.831696,70.242279 -135.66745,140.476135 -203.5,210.71875c-0.035851,0.035828 -0.070313,0.082764 -0.09375,0.125c0.243118,0.235596 0.474892,0.483948 0.71875,0.71875c0.042221,-0.023438 0.089149,-0.057922 0.125,-0.09375c68.022385,-70.439209 136.040924,-140.900208 204.0625,-211.34375c-56.375916,62.610138 -112.752136,125.235382 -169.125,187.84375c-0.118805,0.128174 -0.146179,0.302063 -0.09375,0.46875c0.052414,0.166687 0.172974,0.306641 0.34375,0.34375c0.170746,0.037109 0.351913,-0.026306 0.46875,-0.15625c0.478683,-0.531616 0.958817,-1.062134 1.4375,-1.59375c55.992966,-62.186523 112.004425,-124.374329 168,-186.5625c-61.360474,73.125732 -122.735046,146.250549 -184.09375,219.375c-0.147385,0.13501 -0.216293,0.340576 -0.15625,0.53125c0.060028,0.190674 0.239334,0.317505 0.4375,0.34375c0.198166,0.026245 0.392426,-0.050232 0.5,-0.21875c3.117859,-3.715698 6.225845,-7.440491 9.34375,-11.15625c58.081543,-69.218811 116.168945,-138.436249 174.25,-207.65625c-59.406342,76.031769 -118.814514,152.059814 -178.21875,228.09375c-0.181213,0.232971 -0.139252,0.568787 0.09375,0.75c0.233002,0.181213 0.568787,0.139221 0.75,-0.09375c59.513474,-76.173767 119.020386,-152.35498 178.53125,-228.53125c-47.91745,65.947571 -95.834869,131.894196 -143.75,197.84375c-7.880478,10.846985 -15.775925,21.684875 -23.65625,32.53125c-0.163956,0.232971 -0.108002,0.55481 0.125,0.71875c0.233002,0.16394 0.554794,0.107971 0.71875,-0.125c55.576981,-76.495178 111.145844,-152.975037 166.71875,-229.46875c-54.624176,80.982513 -109.250031,161.952698 -163.875,242.9375c0.292221,0.198242 0.582092,0.396423 0.875,0.59375c54.806335,-81.253723 109.600677,-162.525146 164.40625,-243.78125c-43.494995,69.603638 -86.973404,139.205444 -130.46875,208.8125c-0.146698,0.224365 -0.099365,0.509521 0.125,0.65625c0.224365,0.146729 0.540802,0.099365 0.6875,-0.125c0.473343,-0.757507 0.932907,-1.523743 1.40625,-2.28125c43.245987,-69.208069 86.502075,-138.416626 129.75,-207.625c-48.782806,84.486389 -97.594833,168.947693 -146.375,253.4375c-0.146698,0.250244 -0.062744,0.572021 0.1875,0.71875c0.250244,0.146729 0.572052,0.062744 0.71875,-0.1875c5.910431,-10.237183 11.808609,-20.481445 17.71875,-30.71875c42.486313,-73.58844 84.983337,-147.162872 127.46875,-220.75c-45.278809,85.157196 -90.564972,170.31189 -135.84375,255.46875c-0.138077,0.25885 -0.040131,0.580688 0.21875,0.71875c0.258881,0.138062 0.580673,0.0401 0.71875,-0.21875c45.326813,-85.247253 90.641876,-170.502441 135.96875,-255.75c-37.16333,76.194275 -74.306244,152.399292 -111.46875,228.59375c-2.718323,5.573303 -5.437927,11.145386 -8.15625,16.71875c-0.093063,0.163696 -0.102386,0.37323 0,0.53125c0.102402,0.15802 0.312592,0.236877 0.5,0.21875c0.187393,-0.018127 0.335983,-0.137817 0.40625,-0.3125c39.919174,-81.846497 79.830688,-163.68692 119.75,-245.53125c-39.729431,89.236725 -79.458008,178.484802 -119.1875,267.71875c-0.119095,0.173218 -0.114105,0.385986 0,0.5625c0.040756,0.063049 0.095505,0.113708 0.15625,0.15625c0.063522,0.028381 0.123962,0.06543 0.1875,0.09375c0.009613,0.002075 0.021515,-0.001526 0.03125,0c0.050583,0.007874 0.104538,0.009399 0.15625,0c0.206833,-0.037415 0.361313,-0.200928 0.40625,-0.40625c39.78421,-89.356812 79.559601,-178.707581 119.34375,-268.0625c-34.116119,84.446411 -68.22583,168.899048 -102.34375,253.34375c-1.276047,3.158325 -2.567703,6.310425 -3.84375,9.46875c-0.1073,0.173889 -0.085663,0.394958 0.03125,0.5625c0.116913,0.167542 0.299789,0.25946 0.5,0.21875c0.200211,-0.04071 0.364044,-0.20636 0.40625,-0.40625c35.406555,-87.634277 70.811676,-175.271637 106.21875,-262.90625c-5.996429,16.477264 -11.97348,32.960693 -17.96875,49.4375c-22.912842,62.948364 -45.836884,125.890442 -68.75,188.84375c-0.023727,0.064697 -0.034409,0.122742 -0.03125,0.1875c-0.133026,0.365479 -0.273224,0.728271 -0.40625,1.09375c-0.088547,0.167053 -0.082138,0.379944 0.03125,0.53125c0.113388,0.151306 0.314774,0.225525 0.5,0.1875c0.185211,-0.038025 0.33046,-0.191223 0.375,-0.375c0.155533,-0.427307 0.313217,-0.853943 0.46875,-1.28125c28.968262,-79.589722 57.938141,-159.189209 86.90625,-238.78125c-28.540344,87.835205 -57.085083,175.663208 -85.625,263.5c-0.086288,0.267517 0.044983,0.569946 0.3125,0.65625c0.267517,0.086304 0.569962,-0.076233 0.65625,-0.34375c28.421844,-87.473328 56.858978,-174.93457 85.28125,-262.40625c-26.281616,91.657379 -52.593201,183.313232 -78.875,274.96875c-0.077667,0.276123 0.067596,0.578552 0.34375,0.65625c0.276154,0.077698 0.578583,-0.098877 0.65625,-0.375c26.331879,-91.830139 52.668304,-183.667999 79,-275.5c-19.334808,77.55072 -38.664795,155.106995 -58,232.65625c-0.005035,0.021545 0.002045,0.041016 0,0.0625c-0.490753,1.968384 -0.977966,3.937866 -1.46875,5.90625c-0.093048,0.177307 -0.07077,0.381775 0.0625,0.53125c0.13327,0.149475 0.344452,0.197205 0.53125,0.125c0.186768,-0.072205 0.314423,-0.237244 0.3125,-0.4375c0.496307,-1.990601 1.003693,-3.97821 1.5,-5.96875c19.366119,-77.673218 38.728027,-155.330627 58.09375,-233c-20.333221,95.663513 -40.666779,191.339539 -61,287c-0.080261,0.192261 -0.051575,0.413208 0.09375,0.5625c0.145325,0.149292 0.368103,0.200012 0.5625,0.125c0.194397,-0.075012 0.336395,-0.260498 0.34375,-0.46875c20.322205,-95.608521 40.646576,-191.232178 60.96875,-286.84375c-16.734161,94.906555 -33.484253,189.812866 -50.21875,284.71875c-0.073517,0.193298 -0.023682,0.418823 0.125,0.5625c0.148682,0.143738 0.371857,0.173828 0.5625,0.09375c0.190674,-0.080078 0.311005,-0.261963 0.3125,-0.46875c16.721405,-94.831604 33.435181,-189.667694 50.15625,-284.5c-12.873688,91.584229 -25.75354,183.164734 -38.625,274.75c-0.034515,0.28479 0.15274,0.559204 0.4375,0.59375c0.28479,0.034546 0.559235,-0.18396 0.59375,-0.46875c12.867126,-91.554504 25.729248,-183.102814 38.59375,-274.65625c-9.011261,85.757874 -18.018097,171.52655 -27.03125,257.28125c-0.046082,0.187195 0.036194,0.380554 0.1875,0.5c0.151306,0.119507 0.328583,0.150757 0.5,0.0625c0.171417,-0.088257 0.290588,-0.276184 0.28125,-0.46875c0.258423,-2.458618 0.522797,-4.916382 0.78125,-7.375c8.755707,-83.305115 17.523254,-166.602783 26.28125,-249.90625c-6.03714,86.377777 -12.053375,172.743713 -18.09375,259.125c-0.048828,0.188354 0.003998,0.378784 0.15625,0.5c0.152222,0.121216 0.389832,0.152283 0.5625,0.0625c0.172668,-0.089783 0.26181,-0.274475 0.25,-0.46875c6.04776,-86.486816 12.106659,-172.980408 18.15625,-259.46875c-0.051941,1.489563 -0.10434,2.979187 -0.15625,4.46875c-3.268433,93.540497 -6.546051,187.08606 -9.8125,280.625c-0.008636,0.28479 0.21524,0.522644 0.5,0.53125c0.28476,0.008606 0.522614,-0.21521 0.53125,-0.5c3.30899,-94.757568 6.626709,-189.522217 9.9375,-284.28125c0,87.772125 0,175.538818 0,263.3125c0,7.812378 0,15.625183 0,23.4375c0,0.28479 0.21524,0.5 0.5,0.5c0.28479,0 0.53125,-0.21521 0.53125,-0.5c0,-95.570923 0,-191.14679 0,-286.71875c3.10495,88.936615 6.206787,177.876892 9.3125,266.8125c0.008636,0.276123 0.255096,0.477356 0.53125,0.46875c0.276154,-0.008606 0.477386,-0.223877 0.46875,-0.5c-0.213898,-6.125061 -0.442383,-12.249939 -0.65625,-18.375c-2.900513,-83.059814 -5.790161,-166.12616 -8.6875,-249.1875c6.373444,91.157562 12.75058,182.309998 19.125,273.46875c0.358978,5.135132 0.70343,10.271118 1.0625,15.40625c0.00119,0.191528 0.11145,0.380127 0.28125,0.46875c0.1698,0.088623 0.373413,0.077271 0.53125,-0.03125c0.157837,-0.108521 0.240692,-0.309753 0.21875,-0.5c-6.710846,-95.969604 -13.417389,-191.936951 -20.125,-287.90625c1.475037,14.03183 2.96225,28.062134 4.4375,42.09375c8.666351,82.48941 17.329498,164.974731 26,247.46875c0.002106,0.195496 0.106049,0.382019 0.28125,0.46875c0.175232,0.08667 0.405823,0.054382 0.5625,-0.0625c0.156708,-0.116882 0.220673,-0.307373 0.1875,-0.5c-10.150909,-96.578979 -20.28894,-193.168823 -30.4375,-289.75c12.78537,90.988434 25.556274,181.981262 38.34375,272.96875c0.043152,0.28479 0.30899,0.480652 0.59375,0.4375c0.28476,-0.043152 0.480652,-0.30896 0.4375,-0.59375c-12.81955,-91.215698 -25.646423,-182.413239 -38.46875,-273.625c16.315247,92.522034 32.623016,185.038574 48.9375,277.5625c0.017151,0.193726 0.131226,0.367065 0.3125,0.4375c0.181274,0.070435 0.387817,0.037537 0.53125,-0.09375c0.143433,-0.131348 0.210419,-0.344482 0.15625,-0.53125c-16.331146,-92.618408 -32.668091,-185.227203 -49,-277.84375c17.195435,80.907318 34.396301,161.811218 51.59375,242.71875c0.012939,0.066895 0.026764,0.134277 0.0625,0.1875c0.703827,3.31134 1.389923,6.62616 2.09375,9.9375c0.051788,0.267517 0.326233,0.426758 0.59375,0.375c0.267517,-0.051758 0.426788,-0.294983 0.375,-0.5625c-0.717438,-3.375305 -1.438751,-6.749756 -2.15625,-10.125c-17.177063,-80.811707 -34.350983,-161.626007 -51.53125,-242.4375c23.311646,93.490784 46.627319,186.976624 69.9375,280.46875c0.032043,0.191895 0.158203,0.347839 0.34375,0.40625c0.185547,0.058411 0.39502,0.013855 0.53125,-0.125c0.13623,-0.138916 0.187012,-0.346863 0.125,-0.53125c-23.247833,-93.242126 -46.500641,-186.478027 -69.75,-279.71875c21.134796,73.695801 42.269531,147.397034 63.40625,221.09375c4.256134,14.844727 8.524872,29.6875 12.78125,44.53125c0.001709,0.009521 -0.002228,0.021912 0,0.03125c0.433411,1.511475 0.879089,3.019775 1.3125,4.53125c0.024231,0.201111 0.149963,0.37854 0.34375,0.4375c0.193787,0.058899 0.430389,-0.002686 0.5625,-0.15625c0.132111,-0.153564 0.14975,-0.3797 0.0625,-0.5625c-0.436188,-1.521179 -0.876312,-3.041321 -1.3125,-4.5625c-25.335876,-88.356873 -50.665039,-176.73288 -76,-265.09375c30.03714,92.43866 60.089783,184.873596 90.125,277.3125c0.086304,0.276123 0.380096,0.430054 0.65625,0.34375c0.276154,-0.086304 0.430054,-0.380127 0.34375,-0.65625c-30.143127,-92.770996 -60.292511,-185.541718 -90.4375,-278.3125c29.291595,80.477417 58.58429,160.961975 87.875,241.4375c0.09491,0.25885 0.366119,0.40741 0.625,0.3125c0.258881,-0.09491 0.40741,-0.3974 0.3125,-0.65625c-29.362518,-80.672791 -58.730377,-161.330383 -88.09375,-242c36.757324,90.978119 73.524445,181.961304 110.28125,272.9375c0.312744,-0.126038 0.625275,-0.248047 0.9375,-0.375c-36.709106,-90.858337 -73.388641,-181.706726 -110.09375,-272.5625c32.991241,74.10376 65.975769,148.209045 98.96875,222.3125c0.825043,1.853149 1.643677,3.709412 2.46875,5.5625c0.112183,0.250244 0.406006,0.362183 0.65625,0.25c0.250244,-0.112183 0.362183,-0.406006 0.25,-0.65625c-33.857758,-76.045776 -67.732574,-152.081329 -101.59375,-228.125c42.026581,86.166016 84.068756,172.336121 126.09375,258.5c0.680084,1.394348 1.351166,2.793152 2.03125,4.1875c0.129425,0.25885 0.459869,0.379456 0.71875,0.25c0.258881,-0.129456 0.348175,-0.4599 0.21875,-0.71875c-0.651489,-1.335754 -1.317261,-2.664246 -1.96875,-4c-0.002808,-0.044189 -0.016785,-0.081665 -0.03125,-0.125c-0.010223,-0.020935 -0.021027,-0.041565 -0.03125,-0.0625c-41.916412,-85.941223 -83.83197,-171.873871 -125.75,-257.8125c44.072754,82.886261 88.146698,165.768799 132.21875,248.65625c0.069397,0.191589 0.2341,0.331177 0.4375,0.34375c0.2034,0.012573 0.407562,-0.09967 0.5,-0.28125c0.092438,-0.18158 0.067322,-0.405457 -0.0625,-0.5625c-43.966827,-82.689514 -87.912415,-165.374146 -131.875,-248.0625c45.23584,78.355133 90.481628,156.709534 135.71875,235.0625c0.007111,0.012329 0.024139,0.018921 0.03125,0.03125c0.032074,0.043579 0.051666,0.094666 0.09375,0.125c0.157196,0.143005 0.399292,0.173645 0.59375,0.0625c0.202362,-0.115601 0.275391,-0.347351 0.21875,-0.5625c-0.006256,-0.042786 -0.013702,-0.083984 -0.03125,-0.125c-0.011627,-0.020142 -0.019623,-0.042358 -0.03125,-0.0625c-45.348419,-78.545776 -90.684082,-157.082123 -136.03125,-235.625c51.831543,82.94754 103.669189,165.896973 155.5,248.84375c0.294495,-0.183838 0.581116,-0.377747 0.875,-0.5625c-51.770905,-82.851379 -103.540649,-165.71048 -155.3125,-248.5625c54.18924,80.338959 108.374878,160.694885 162.5625,241.03125c0.16394,0.241638 0.508362,0.32019 0.75,0.15625c0.241638,-0.16394 0.28894,-0.508362 0.125,-0.75c-54.25827,-80.441101 -108.521393,-160.873566 -162.78125,-241.3125c57.033966,78.499573 114.059509,156.999084 171.09375,235.5c0.172607,0.232971 0.517029,0.297607 0.75,0.125c0.232971,-0.172607 0.266357,-0.517029 0.09375,-0.75c-56.915405,-78.337341 -113.834869,-156.664032 -170.75,-235c59.082703,75.624542 118.166748,151.251953 177.25,226.875c1.014648,1.298706 2.019165,2.605469 3.03125,3.90625c0.281128,-0.219238 0.563416,-0.436096 0.84375,-0.65625c-1.021484,-1.301575 -2.043884,-2.602478 -3.0625,-3.90625c-39.075012,-50.013672 -78.144775,-100.023834 -117.21875,-150.03125c-19.973328,-25.559204 -39.934937,-51.127319 -59.90625,-76.6875c62.257446,74.188873 124.527679,148.371582 186.78125,222.5625c0.102173,0.182312 0.292358,0.273438 0.5,0.25c0.207642,-0.023438 0.37854,-0.14325 0.4375,-0.34375c0.058899,-0.2005 0.005676,-0.43042 -0.15625,-0.5625c-62.386505,-74.349426 -124.77066,-148.710358 -187.15625,-223.0625c59.778625,66.3862 119.56839,132.768921 179.34375,199.15625c0.116821,0.151794 0.312439,0.226257 0.5,0.1875c0.187561,-0.038818 0.327942,-0.189331 0.375,-0.375c0.047119,-0.185608 -0.009827,-0.376526 -0.15625,-0.5c-3.331421,-3.69989 -6.66864,-7.39386 -10,-11.09375c-15.728516,-17.468323 -31.459229,-34.936584 -47.1875,-52.40625c-40.779907,-45.292084 -81.562256,-90.58194 -122.34375,-135.875c63.960052,66.231018 127.950562,132.459412 191.90625,198.6875c0.198486,0.198486 0.520264,0.198486 0.71875,0c0.198486,-0.198486 0.198486,-0.520264 0,-0.71875c-64.072479,-66.34903 -128.14682,-132.684174 -192.21875,-199.03125c67.848755,65.52182 135.678833,131.038208 203.53125,196.5625c0.121948,0.155579 0.307129,0.230957 0.5,0.1875c0.19281,-0.043457 0.362793,-0.21344 0.40625,-0.40625c0.043457,-0.192871 -0.031921,-0.378052 -0.1875,-0.5c-67.678497,-65.356323 -135.351654,-130.735107 -203.03125,-196.09375c68.728668,61.883789 137.459839,123.773651 206.1875,185.65625c0.207092,0.18988 0.52887,0.175842 0.71875,-0.03125c0.18988,-0.207092 0.175842,-0.52887 -0.03125,-0.71875c-5.426331,-4.885864 -10.854858,-9.770264 -16.28125,-14.65625c-63.188965,-56.89563 -126.374329,-113.791779 -189.5625,-170.6875c74.789368,62.753601 149.586182,125.494995 224.375,188.25c0.227844,-0.270325 0.46051,-0.541443 0.6875,-0.8125c-75.02063,-62.949768 -150.041199,-125.895508 -225.0625,-188.84375c64.030762,50.024994 128.061371,100.034912 192.09375,150.0625c3.554993,2.777405 7.101257,5.566284 10.65625,8.34375c0.126343,0.157471 0.338562,0.21637 0.53125,0.15625c0.192688,-0.06012 0.329407,-0.236145 0.34375,-0.4375c0.014343,-0.201355 -0.098999,-0.381958 -0.28125,-0.46875c-3.555298,-2.77771 -7.101074,-5.566101 -10.65625,-8.34375c-64.108002,-50.086639 -128.206116,-100.165924 -192.3125,-150.25c79.309906,57.623596 158.628906,115.253723 237.9375,172.875c0.202454,-0.277161 0.392151,-0.565979 0.59375,-0.84375c-79.030457,-57.419098 -158.061981,-114.85968 -237.09375,-172.28125c74.811646,50.461792 149.624329,100.912933 224.4375,151.375c2.46936,1.665588 4.93689,3.334412 7.40625,5c0.149902,0.125488 0.352966,0.142761 0.53125,0.0625c0.178223,-0.0802 0.307007,-0.242065 0.3125,-0.4375c0.005493,-0.195374 -0.107788,-0.378601 -0.28125,-0.46875c-77.569336,-52.321106 -155.148407,-104.645538 -232.71875,-156.96875c71.360687,44.589203 142.734131,89.159485 214.09375,133.75c1.198608,0.748962 2.395142,1.501038 3.59375,2.25c0.144226,0.125031 0.357239,0.140869 0.53125,0.0625c0.174011,-0.078369 0.279236,-0.246643 0.28125,-0.4375c0.002014,-0.190857 -0.108887,-0.35553 -0.28125,-0.4375c-1.205994,-0.753571 -2.419006,-1.496429 -3.625,-2.25c-71.423279,-44.63028 -142.856903,-89.246033 -214.28125,-133.875c78.789337,45.488159 157.583801,90.947327 236.375,136.4375c0.241638,0.146698 0.572021,0.085358 0.71875,-0.15625c0.146729,-0.241608 0.054138,-0.572052 -0.1875,-0.71875c-3.725891,-2.151154 -7.461487,-4.286377 -11.1875,-6.4375c-74.818604,-43.196503 -149.647888,-86.396271 -224.46875,-129.59375c77.862091,41.403473 155.72876,82.78595 233.59375,124.1875c0.250244,0.129425 0.558044,0.031494 0.6875,-0.21875c0.129456,-0.250244 0.031494,-0.558075 -0.21875,-0.6875c-77.848328,-41.3927 -155.685852,-82.766693 -233.53125,-124.15625c54.322235,26.492004 108.645477,52.98056 162.96875,79.46875c28.852722,14.075928 57.708496,28.145752 86.5625,42.21875c0.037781,0.018433 0.087219,0.012817 0.125,0.03125c0.02301,0.005035 0.039368,0.029449 0.0625,0.03125c1.875916,0.914917 3.749146,1.835083 5.625,2.75c0.16571,0.125824 0.383057,0.136597 0.5625,0.03125c0.179382,-0.105316 0.279114,-0.293976 0.25,-0.5c-0.029175,-0.205994 -0.173401,-0.386017 -0.375,-0.4375c-1.926086,-0.939423 -3.855164,-1.873077 -5.78125,-2.8125c-83.016113,-40.489624 -166.042908,-81.006927 -249.0625,-121.5c27.694489,12.329041 55.397308,24.641144 83.09375,36.96875c58.461426,26.024109 116.9151,52.065735 175.375,78.09375c0.029968,0.013336 0.063782,0.017914 0.09375,0.03125c0.170593,0.092865 0.371826,0.079773 0.53125,-0.03125c0.159363,-0.111023 0.246765,-0.30777 0.21875,-0.5c-0.021179,-0.145477 -0.13147,-0.23291 -0.25,-0.3125c-0.029663,-0.032867 -0.055359,-0.068878 -0.09375,-0.09375c-0.02124,-0.00946 -0.04126,-0.02179 -0.0625,-0.03125c-86.278198,-38.413513 -172.564697,-76.807312 -258.84375,-115.21875c87.23587,35.245331 174.484253,70.473724 261.71875,105.71875c0.173706,0.105896 0.395874,0.08548 0.5625,-0.03125c0.166626,-0.116699 0.258911,-0.300568 0.21875,-0.5c-0.040161,-0.199432 -0.207458,-0.363159 -0.40625,-0.40625c-87.50708,-35.355164 -175.022797,-70.707031 -262.53125,-106.0625c82.717926,30.10672 165.438232,60.205627 248.15625,90.3125c3.155396,1.148468 6.313293,2.289032 9.46875,3.4375c0.17395,0.094177 0.373474,0.088043 0.53125,-0.03125c0.157715,-0.119293 0.230774,-0.338257 0.1875,-0.53125c-0.043274,-0.193024 -0.181396,-0.334442 -0.375,-0.375c-3.155457,-1.148468 -6.313354,-2.289032 -9.46875,-3.4375c-51.093018,-18.596313 -102.188416,-37.185242 -153.28125,-55.78125c-31.584717,-11.494324 -63.164368,-23.004333 -94.75,-34.5c85.936432,27.924683 171.877258,55.859253 257.8125,83.78125c0.267517,0.086304 0.538696,-0.076233 0.625,-0.34375c0.086304,-0.267517 -0.044983,-0.538696 -0.3125,-0.625c-85.822083,-27.885254 -171.645447,-55.773254 -257.46875,-83.65625c89.981293,25.801178 179.954529,51.604065 269.9375,77.40625c2.126465,0.609772 4.248474,1.233978 6.375,1.84375c0.276123,0.077667 0.578552,-0.067596 0.65625,-0.34375c0.077698,-0.276154 -0.098877,-0.578583 -0.375,-0.65625c-2.126526,-0.609772 -4.248535,-1.233978 -6.375,-1.84375c-89.773865,-25.742249 -179.540314,-51.477539 -269.3125,-77.21875c18.843964,4.698029 37.6875,9.396179 56.53125,14.09375c70.062103,17.469421 140.124084,34.937469 210.1875,52.40625c5.155334,1.285309 10.313416,2.55838 15.46875,3.84375c0.187256,0.071777 0.386169,0.044678 0.53125,-0.09375c0.145081,-0.138397 0.219116,-0.37207 0.15625,-0.5625c-0.062927,-0.190399 -0.238525,-0.31897 -0.4375,-0.34375c-5.155334,-1.28537 -10.313416,-2.558441 -15.46875,-3.84375c-89.105896,-22.216614 -178.207275,-44.439301 -267.3125,-66.65625c4.448425,0.945465 8.895325,1.898285 13.34375,2.84375c88.875427,18.893768 177.749023,37.796326 266.625,56.6875c0.28479,0.060425 0.564575,-0.12149 0.625,-0.40625c0.060425,-0.28476 -0.12146,-0.564575 -0.40625,-0.625c-3.894836,-0.827881 -7.792664,-1.64093 -11.6875,-2.46875c-89.239868,-18.968506 -178.478729,-37.939117 -267.71875,-56.90625c95.872253,16.907318 191.754883,33.81424 287.625,50.71875c0.28479,0.051788 0.573242,-0.12149 0.625,-0.40625c0.051758,-0.28479 -0.15271,-0.573212 -0.4375,-0.625c-8.697205,-1.533539 -17.396362,-3.060364 -26.09375,-4.59375c-87.321289,-15.397064 -174.646515,-30.791534 -261.96875,-46.1875c94.928406,13.343933 189.851196,26.689697 284.78125,40.03125c0.28479,0.043152 0.550598,-0.15274 0.59375,-0.4375c0.043152,-0.28476 -0.15271,-0.550598 -0.4375,-0.59375c-94.983398,-13.34906 -189.982269,-26.68457 -284.96875,-40.03125c24.697693,2.595123 49.395813,5.187164 74.09375,7.78125c68.553223,7.209564 137.107544,14.420258 205.65625,21.625c0.28479,0.025879 0.536621,-0.18399 0.5625,-0.46875c0.025879,-0.28476 -0.18396,-0.536621 -0.46875,-0.5625c-93.255371,-9.801514 -186.497101,-19.607056 -279.75,-29.40625c92.166412,6.445801 184.333984,12.898865 276.5,19.34375c0.195862,0.044312 0.411438,-0.026367 0.53125,-0.1875c0.119812,-0.161102 0.130066,-0.387695 0.03125,-0.5625c-0.098816,-0.174805 -0.300171,-0.269562 -0.5,-0.25c-2.687439,-0.187927 -5.375061,-0.374573 -8.0625,-0.5625c-89.460205,-6.255676 -178.91568,-12.524506 -268.375,-18.78125c94.013489,3.284088 188.014343,6.560608 282.03125,9.84375c0.468933,0.016388 0.937317,0.046143 1.40625,0.0625c0.28479,0.008636 0.522644,-0.21524 0.53125,-0.5c0.008606,-0.28476 -0.21521,-0.522614 -0.5,-0.53125c-0.468933,-0.016357 -0.937317,-0.046112 -1.40625,-0.0625c-30.63739,-1.069885 -61.271545,-2.120697 -91.90625,-3.1875c-63.280945,-2.214996 -126.561432,-4.444275 -189.84375,-6.65625c94.480438,0 188.95575,0 283.4375,0c0.28479,0 0.5,-0.21524 0.5,-0.5c0,-0.28479 -0.21521,-0.53125 -0.5,-0.53125c-94.16925,0 -188.332092,0 -282.5,0c97.448517,-3.404449 194.894653,-6.815674 292.34375,-10.21875c-0.011658,-0.355896 -0.018433,-0.706879 -0.03125,-1.0625c-97.626282,3.409454 -195.249237,6.839355 -292.875,10.25c91.729431,-6.411591 183.458374,-12.835693 275.1875,-19.25c0.010681,-0.000641 0.020752,0.001282 0.03125,0c0.687744,-0.048096 1.374756,-0.108154 2.0625,-0.15625c0.28479,-0.017273 0.517273,-0.27771 0.5,-0.5625c-0.017273,-0.28479 -0.27771,-0.486023 -0.5625,-0.46875c-93.037598,6.505829 -186.08548,13.021698 -279.125,19.53125c81.200287,-8.533752 162.390259,-17.058929 243.59375,-25.59375c0.267517,-0.025879 0.463379,-0.263733 0.4375,-0.53125c-0.025879,-0.267517 -0.263733,-0.463379 -0.53125,-0.4375c-43.544983,4.576782 -87.084595,9.167297 -130.625,13.75c-37.645233,3.958344 -75.291046,7.917572 -112.9375,11.875c87.247894,-12.264893 174.504822,-24.550964 261.75,-36.8125c0.040833,-0.005737 0.084167,0.005737 0.125,0c0.276123,-0.034515 0.472046,-0.286346 0.4375,-0.5625c-0.034546,-0.276154 -0.286377,-0.472015 -0.5625,-0.4375c-86.872498,12.209106 -173.751282,24.415466 -260.625,36.625c94.637848,-16.686218 189.266357,-33.374908 283.90625,-50.0625c1.551636,-0.27359 3.104614,-0.53891 4.65625,-0.8125c0.28479,-0.051788 0.458008,-0.34021 0.40625,-0.625c-0.051758,-0.28479 -0.30896,-0.458038 -0.59375,-0.40625c-1.541504,0.27182 -3.083496,0.54068 -4.625,0.8125c-9.260193,1.632843 -18.520752,3.273102 -27.78125,4.90625c-85.229248,15.026001 -170.458191,30.036316 -255.6875,45.0625c94.280701,-20.038177 188.5625,-40.053619 282.84375,-60.09375c0.28479,-0.060425 0.466675,-0.34024 0.40625,-0.625c-0.060425,-0.28476 -0.34021,-0.466675 -0.625,-0.40625c-94.533325,20.093719 -189.060944,40.216003 -283.59375,60.3125c93.477295,-23.30835 186.962463,-46.631561 280.4375,-69.9375c0.1922,-0.031708 0.347595,-0.157959 0.40625,-0.34375c0.058655,-0.18576 0.01416,-0.394928 -0.125,-0.53125c-0.139221,-0.136353 -0.346741,-0.187469 -0.53125,-0.125c-93.43335,23.295532 -186.876862,46.608276 -280.3125,69.90625c88.397095,-25.343445 176.790344,-50.683777 265.1875,-76.03125c0.276123,-0.077667 0.452637,-0.380096 0.375,-0.65625c-0.077698,-0.276154 -0.380127,-0.421417 -0.65625,-0.34375c-88.43866,25.359375 -176.873901,50.733521 -265.3125,76.09375c10.564087,-3.432831 21.123566,-6.879425 31.6875,-10.3125c77.083038,-25.042328 154.170776,-50.080414 231.25,-75.125c0.276123,-0.051788 0.458008,-0.317596 0.40625,-0.59375c-0.051758,-0.276154 -0.317627,-0.458038 -0.59375,-0.40625c-0.042847,0.005066 -0.084839,0.015564 -0.125,0.03125c-87.339111,28.378235 -174.689758,56.748169 -262.03125,85.125c91.767761,-33.401215 183.545471,-66.78714 275.3125,-100.1875c-0.121094,-0.334045 -0.252869,-0.666473 -0.375,-1c-91.986877,33.48056 -183.981079,66.956268 -275.96875,100.4375c86.485413,-34.941742 172.98584,-69.871124 259.46875,-104.8125c0.066895,-0.023727 0.138245,-0.048676 0.1875,-0.09375c3.132996,-1.265808 6.273254,-2.515457 9.40625,-3.78125c0.276123,-0.077667 0.452637,-0.348862 0.375,-0.625c-0.077698,-0.276154 -0.380127,-0.452667 -0.65625,-0.375c-0.044312,0.015091 -0.086365,0.036118 -0.125,0.0625c-3.176331,1.28331 -6.35498,2.560425 -9.53125,3.84375c-0.021545,0.008972 -0.042419,0.019424 -0.0625,0.03125c-86.62915,35.000458 -173.248199,69.999176 -259.875,105c86.757233,-38.62854 173.524719,-77.248474 260.28125,-115.875c0.267517,-0.094925 0.40741,-0.388733 0.3125,-0.65625c-0.09491,-0.267517 -0.388733,-0.407425 -0.65625,-0.3125c-0.032166,0.007385 -0.063599,0.017838 -0.09375,0.03125c-86.632813,38.571472 -173.272675,77.145233 -259.90625,115.71875c75.5,-36.822418 151.000732,-73.645355 226.5,-110.46875c2.206665,-1.076248 4.418335,-2.142487 6.625,-3.21875c0.25885,-0.103546 0.384827,-0.397369 0.28125,-0.65625c-0.103577,-0.258881 -0.3974,-0.384796 -0.65625,-0.28125c-0.021545,0.008926 -0.042419,0.019363 -0.0625,0.03125c-2.168823,1.0578 -4.331177,2.129684 -6.5,3.1875c-0.044434,0.014709 -0.086548,0.035767 -0.125,0.0625c-75.630005,36.887634 -151.275085,73.766876 -226.90625,110.65625c77.626587,-41.276886 155.248169,-82.568848 232.875,-123.84375c5.8302,-3.099899 11.669739,-6.181244 17.5,-9.28125c0.267517,-0.094925 0.40741,-0.388733 0.3125,-0.65625c-0.09491,-0.267517 -0.388733,-0.407425 -0.65625,-0.3125c-0.044312,0.01503 -0.086365,0.036057 -0.125,0.0625c-83.181946,44.228607 -166.376465,88.460907 -249.5625,132.6875c77.73288,-44.879456 155.454163,-89.776978 233.1875,-134.65625c0.25885,-0.103546 0.384827,-0.397369 0.28125,-0.65625c-0.103577,-0.258881 -0.3974,-0.384796 -0.65625,-0.28125c-0.044373,0.014893 -0.086487,0.035934 -0.125,0.0625c-78.104797,45.09375 -156.20816,90.187317 -234.3125,135.28125c73.957214,-46.212677 147.917236,-92.411377 221.875,-138.625c0.072632,-0.0242 0.104736,-0.075073 0.15625,-0.125c2.392517,-1.49501 4.794983,-2.973724 7.1875,-4.46875c0.205505,-0.114456 0.317627,-0.368423 0.25,-0.59375c-0.067627,-0.225327 -0.296631,-0.361343 -0.53125,-0.34375c-0.090271,0.008072 -0.176697,0.040466 -0.25,0.09375c-76.387085,47.731918 -152.77002,95.457031 -229.15625,143.1875c75.759277,-51.09726 151.522461,-102.181274 227.28125,-153.28125c0.055237,-0.029739 0.117188,-0.07991 0.15625,-0.125c2.488647,-1.678604 4.980103,-3.352646 7.46875,-5.03125c0.200623,-0.130005 0.269775,-0.369308 0.1875,-0.59375c-0.082275,-0.224426 -0.294189,-0.374237 -0.53125,-0.34375c-0.079285,0.013626 -0.154236,0.045746 -0.21875,0.09375c-78.185486,52.736771 -156.377655,105.452148 -234.5625,158.1875c70.82843,-51.461517 141.672729,-102.91597 212.5,-154.375c0.18811,-0.124664 0.261047,-0.349167 0.1875,-0.5625c-0.073608,-0.213333 -0.275024,-0.361526 -0.5,-0.34375c-0.093628,0.016785 -0.18042,0.060196 -0.25,0.125c-17.104431,12.427109 -34.20752,24.855301 -51.3125,37.28125c-53.657257,38.978699 -107.311371,77.956787 -160.96875,116.9375c75.188538,-58.743134 150.377014,-117.508636 225.5625,-176.25c0.210327,-0.148224 0.274475,-0.427719 0.15625,-0.65625c-0.118225,-0.228531 -0.382507,-0.335983 -0.625,-0.25c-0.068298,0.018066 -0.13208,0.049973 -0.1875,0.09375c-74.917053,58.531647 -149.834717,117.060303 -224.75,175.59375c74.727753,-62.709045 149.457947,-125.419113 224.1875,-188.125c-0.221924,-0.264984 -0.464783,-0.516998 -0.6875,-0.78125c-74.944519,62.885727 -149.896667,125.77179 -224.84375,188.65625c70.592804,-63.564362 141.186951,-127.124069 211.78125,-190.6875c0.162048,-0.137009 0.225403,-0.361877 0.15625,-0.5625c-0.069214,-0.200623 -0.256714,-0.335754 -0.46875,-0.34375c-0.141174,-0.001617 -0.276733,0.054886 -0.375,0.15625c-70.670837,63.632339 -141.330658,127.27301 -212,190.90625c66.694458,-64.40683 133.400238,-128.813492 200.09375,-193.21875c0.045288,-0.038803 0.09668,-0.07547 0.125,-0.125c1.022705,-0.987595 2.039856,-1.981171 3.0625,-2.96875c0.162415,-0.155167 0.194214,-0.392853 0.09375,-0.59375c-0.100464,-0.200912 -0.309692,-0.318085 -0.53125,-0.28125c-0.108093,0.020493 -0.206726,0.075287 -0.28125,0.15625c-67.714966,65.391586 -135.413635,130.767578 -203.125,196.15625c62.73999,-64.968689 125.478729,-129.937134 188.21875,-194.90625c0.042908,-0.040283 0.068054,-0.074921 0.09375,-0.125c5.18396,-5.368134 10.37854,-10.725594 15.5625,-16.09375c0.035522,-0.034813 0.069702,-0.052452 0.09375,-0.09375c-0.005249,-0.005081 0.005249,-0.026169 0,-0.03125c-0.237915,-0.230492 -0.480164,-0.457741 -0.71875,-0.6875c-0.044922,0.027077 -0.089844,0.054108 -0.125,0.09375c-67.909363,70.322174 -135.810211,140.646912 -203.71875,210.96875c55.787292,-61.957428 111.553864,-123.914017 167.34375,-185.875c0.04364,-0.039124 0.067627,-0.075607 0.09375,-0.125c0.444031,-0.493149 0.899719,-0.975601 1.34375,-1.46875c0.148865,-0.13765 0.201477,-0.343506 0.125,-0.53125c-0.076477,-0.187744 -0.266113,-0.318054 -0.46875,-0.3125c-0.146912,0.002686 -0.284729,0.071594 -0.375,0.1875c-0.47876,0.531708 -0.95874,1.062057 -1.4375,1.59375c-8.93811,9.926743 -17.875,19.854156 -26.8125,29.78125c-47.09491,52.302933 -94.185608,104.602173 -141.28125,156.90625c61.397797,-73.171112 122.786774,-146.325439 184.1875,-219.5c0.161804,-0.170609 0.187805,-0.42601 0.0625,-0.625c-0.125244,-0.19899 -0.369934,-0.290932 -0.59375,-0.21875c-0.100769,0.035072 -0.18811,0.100594 -0.25,0.1875c-61.110931,72.829193 -122.20459,145.643127 -183.3125,218.46875c59.315247,-75.915115 118.62439,-151.832672 177.9375,-227.75c0.155945,-0.172058 0.186218,-0.428482 0.0625,-0.625c-0.123718,-0.196518 -0.371155,-0.285027 -0.59375,-0.21875c-0.112061,0.029266 -0.211121,0.095291 -0.28125,0.1875c-59.536865,76.203735 -119.08606,152.418777 -178.625,228.625c47.9375,-65.982361 95.87207,-131.953186 143.8125,-197.9375c7.880493,-10.846977 15.77594,-21.684898 23.65625,-32.53125c0.125671,-0.168587 0.141479,-0.383423 0.03125,-0.5625c-0.110229,-0.179077 -0.324097,-0.286201 -0.53125,-0.25c-0.128418,0.030083 -0.240295,0.108414 -0.3125,0.21875c-55.643494,76.586746 -111.293213,153.164703 -166.9375,229.75c54.687195,-81.075943 109.374512,-162.140564 164.0625,-243.21875c0.008667,-0.010803 0.023621,-0.019997 0.03125,-0.03125c-0.291748,-0.197952 -0.582581,-0.396729 -0.875,-0.59375c-0.009155,0.012123 -0.023132,0.018288 -0.03125,0.03125c-54.827332,81.284821 -109.642181,162.587769 -164.46875,243.875c43.044373,-68.882507 86.082642,-137.774033 129.125,-206.65625c0.013855,-0.019897 0.020721,-0.041168 0.03125,-0.0625c0.46106,-0.737846 0.91394,-1.480904 1.375,-2.21875c0.103973,-0.167351 0.085846,-0.37281 -0.03125,-0.53125c-0.117096,-0.15844 -0.309509,-0.237801 -0.5,-0.1875c-0.118286,0.034218 -0.218964,0.112511 -0.28125,0.21875c-43.56311,69.715561 -87.124695,139.438904 -130.6875,209.15625c48.635925,-84.23645 97.27301,-168.483429 145.90625,-252.71875c0.100311,-0.168709 0.105804,-0.365929 0,-0.53125c-0.105804,-0.165321 -0.304779,-0.270432 -0.5,-0.25c-0.174225,0.019119 -0.327026,0.124901 -0.40625,0.28125c-48.511536,84.024536 -96.990387,168.068054 -145.5,252.09375c45.388123,-85.362793 90.768158,-170.731277 136.15625,-256.09375c0.106659,-0.173698 0.114624,-0.393951 0,-0.5625c-0.114624,-0.168549 -0.330505,-0.254066 -0.53125,-0.21875c-0.174286,0.018967 -0.327148,0.124802 -0.40625,0.28125c-45.294006,85.185562 -90.580933,170.376617 -135.875,255.5625c39.853943,-81.710266 79.708679,-163.412567 119.5625,-245.125c0.100159,-0.170967 0.083282,-0.369553 -0.03125,-0.53125c-0.114532,-0.16169 -0.305481,-0.256523 -0.5,-0.21875c-0.163635,0.026428 -0.303802,0.131577 -0.375,0.28125c-38.539063,79.01683 -77.085754,158.042236 -115.625,237.0625c-1.513336,3.102722 -3.017914,6.209778 -4.53125,9.3125c36.107422,-81.104492 72.202148,-162.207397 108.3125,-243.3125c3.743713,-8.408783 7.506287,-16.810219 11.25,-25.21875c0.087708,-0.186619 0.041565,-0.406898 -0.09375,-0.5625c-0.135315,-0.155602 -0.334259,-0.21719 -0.53125,-0.15625c-0.145416,0.052589 -0.259918,0.167091 -0.3125,0.3125c-39.807007,89.408066 -79.599335,178.812607 -119.40625,268.21875c35.415771,-87.656113 70.834747,-175.312927 106.25,-262.96875c0.07605,-0.168991 0.047638,-0.350979 -0.0625,-0.5c-0.110138,-0.149021 -0.284882,-0.241871 -0.46875,-0.21875c-0.188965,0.029781 -0.345612,0.162319 -0.40625,0.34375c-35.436249,87.707825 -70.875732,175.41687 -106.3125,263.125c28.937347,-79.502396 57.875,-158.994843 86.8125,-238.5c0.155548,-0.427353 0.313202,-0.853897 0.46875,-1.28125c0.073547,-0.174843 0.033508,-0.390602 -0.09375,-0.53125c-0.127258,-0.140648 -0.318695,-0.18074 -0.5,-0.125c-0.159973,0.03952 -0.289215,0.157021 -0.34375,0.3125c-0.155518,0.427307 -0.313232,0.853943 -0.46875,1.28125c-28.873596,79.329636 -57.751556,158.667969 -86.625,238c28.450867,-87.574814 56.888397,-175.142303 85.34375,-262.71875c0.069092,-0.17152 0.054596,-0.35688 -0.0625,-0.5c-0.117096,-0.14312 -0.318176,-0.221272 -0.5,-0.1875c-0.185669,0.04438 -0.330627,0.189339 -0.375,0.375c-28.471741,87.626907 -56.934113,175.24971 -85.40625,262.875c26.327881,-91.814011 52.640686,-183.620605 78.96875,-275.4375c0.065369,-0.186741 0.014893,-0.39135 -0.125,-0.53125c-0.139923,-0.1399 -0.344513,-0.190369 -0.53125,-0.125c-0.172638,0.05574 -0.303223,0.198181 -0.34375,0.375c-26.298889,91.715118 -52.607544,183.412796 -78.90625,275.125c19.303619,-77.42572 38.602234,-154.85701 57.90625,-232.28125c0.496246,-1.990379 1.003754,-3.978394 1.5,-5.96875c0.047638,-0.167679 -0.00174,-0.34549 -0.125,-0.46875c-0.12326,-0.12326 -0.301056,-0.172653 -0.46875,-0.125c-0.176758,0.049149 -0.31012,0.194641 -0.34375,0.375c-0.488373,1.95871 -0.980377,3.916298 -1.46875,5.875c-0.009216,0.021843 -0.025299,0.039108 -0.03125,0.0625c-15.636963,62.716461 -31.269958,125.437317 -46.90625,188.15625c-3.759155,15.07312 -7.522522,30.145172 -11.28125,45.21875c20.359802,-95.783997 40.733948,-191.558197 61.09375,-287.34375c0.04599,-0.182011 -0.020294,-0.370529 -0.15625,-0.5c-0.135956,-0.129471 -0.320465,-0.179798 -0.5,-0.125c-0.18042,0.06213 -0.312347,0.21804 -0.34375,0.40625c-20.304138,95.523666 -40.602112,191.040436 -60.90625,286.5625c16.717499,-94.812088 33.438385,-189.626068 50.15625,-284.4375c0.03595,-0.162899 -0.013397,-0.344749 -0.125,-0.46875c-0.111603,-0.124001 -0.271729,-0.174889 -0.4375,-0.15625c-0.226654,0.03281 -0.404694,0.21085 -0.4375,0.4375c-16.713959,94.789444 -33.411377,189.584885 -50.125,284.375c12.867737,-91.541916 25.728241,-183.082031 38.59375,-274.625c0.031555,-0.165161 -0.006104,-0.34985 -0.125,-0.46875c-0.118896,-0.1189 -0.303589,-0.156559 -0.46875,-0.125c-0.215942,0.042339 -0.380005,0.219009 -0.40625,0.4375c-1.089172,7.749969 -2.191925,15.499771 -3.28125,23.25c-0.004547,0.020432 0.001923,0.041206 0,0.0625c-2.507874,17.844261 -5.024872,35.68692 -7.53125,53.53125c-9.281433,66.021591 -18.56427,132.04422 -27.84375,198.0625c8.759521,-83.372513 17.518829,-166.756012 26.28125,-250.125c0.258362,-2.45842 0.522858,-4.916611 0.78125,-7.375c0.019745,-0.163849 -0.030487,-0.330612 -0.15625,-0.4375c-0.125763,-0.106888 -0.310211,-0.139641 -0.46875,-0.09375c-0.194,0.060768 -0.330597,0.234627 -0.34375,0.4375c-0.257324,2.448334 -0.523895,4.895439 -0.78125,7.34375c-0.001312,0.009689 0.000732,0.0214 0,0.03125c-2.94635,28.032608 -5.899628,56.062424 -8.84375,84.09375c-5.83075,55.425674 -11.64093,110.85379 -17.46875,166.28125c6.048187,-86.540085 12.073639,-173.086426 18.125,-259.625c0.013397,-0.150269 -0.04657,-0.302662 -0.15625,-0.40625c-0.109711,-0.103588 -0.256989,-0.146969 -0.40625,-0.125c-0.229126,0.04071 -0.398529,0.236172 -0.40625,0.46875c-6.027344,86.195145 -12.064514,172.397064 -18.09375,258.59375c3.305573,-94.742798 6.597656,-189.472595 9.90625,-284.21875c0.012482,-0.16798 -0.05658,-0.33152 -0.1875,-0.4375c-0.13092,-0.10598 -0.307068,-0.140942 -0.46875,-0.09375c-0.223663,0.062721 -0.377411,0.267719 -0.375,0.5c-3.307892,94.725357 -6.60141,189.434265 -9.90625,284.15625c0,-95.540695 0,-191.085327 0,-286.625c0.0065,-0.154129 -0.04129,-0.303391 -0.15625,-0.40625c-0.11496,-0.102859 -0.285034,-0.148521 -0.4375,-0.125c-0.259979,0.0396 -0.448486,0.268509 -0.4375,0.53125c0,95.852173 0,191.709335 0,287.5625c-3.115143,-89.222336 -6.227905,-178.429977 -9.34375,-267.65625c0.005341,-0.15752 -0.064423,-0.307789 -0.1875,-0.40625c-0.123047,-0.098461 -0.285004,-0.13353 -0.4375,-0.09375c-0.239014,0.060249 -0.398285,0.285881 -0.375,0.53125c0.213898,6.12569 0.442383,12.249489 0.65625,18.375c2.893829,82.879288 5.762634,165.747025 8.65625,248.625c-6.721832,-96.104126 -13.435974,-192.208084 -20.15625,-288.3125c-0.001801,-0.155041 -0.066406,-0.309391 -0.1875,-0.40625c-0.121094,-0.096859 -0.285828,-0.12603 -0.4375,-0.09375c-0.259735,0.055431 -0.435303,0.298519 -0.40625,0.5625c6.714478,96.021484 13.440186,192.041306 20.15625,288.0625c-10.153229,-96.575546 -20.317963,-193.140594 -30.46875,-289.71875c-0.010529,-0.283909 -0.247223,-0.506672 -0.53125,-0.5z" id="path7092"/>
   <path opacity="0.2" fill="#ff7f00" fill-rule="nonzero" stroke-width="13" stroke-linecap="round" stroke-linejoin="round" marker-start="none" marker-mid="none" marker-end="none" stroke-miterlimit="4" stroke-dashoffset="0" d="m424.825745,58.27774c-5.93808,16.274063 -8.032806,33.590332 -13.975494,49.863167c-5.946259,16.282555 -15.76474,31.54026 -21.710999,47.822807c-5.946228,16.282562 -8.029236,33.580612 -13.975494,49.863174c-5.946228,16.282562 -15.764709,31.540253 -21.710968,47.8228c0.000824,0.002411 0.028656,0.00647 0.030182,0.008087c3.246887,0.87001 6.472748,1.73436 9.719635,2.60437c3.246887,0.869995 6.502899,1.742462 9.749817,2.612457c3.246887,0.869995 6.50293,1.742462 9.749786,2.612457c3.246918,0.869995 6.50296,1.742462 9.749817,2.612457c2.697601,-17.151016 9.26358,-33.284271 11.961182,-50.435272c2.697601,-17.151016 1.528076,-35.3246 4.225677,-52.475632c2.697601,-17.151001 9.26358,-33.284241 11.961182,-50.435257c2.697601,-17.151009 1.528076,-35.324608 4.225677,-52.475616zm157.960999,101.239197c-14.372314,9.676163 -26.227539,22.44368 -40.602234,32.116989c-14.381226,9.67775 -31.294342,16.259308 -45.675598,25.937057c-14.381256,9.67775 -26.229034,22.469421 -40.610321,32.147171c-14.381256,9.67775 -31.286255,16.229141 -45.667511,25.906876c-0.002533,0.002045 -0.006409,0.027832 -0.008087,0.030182c2.115387,2.612335 4.226166,5.233887 6.341583,7.846191c2.115417,2.612305 4.226196,5.233856 6.341583,7.846191c2.115417,2.612305 4.234283,5.203674 6.349701,7.815979c2.115387,2.612305 4.226166,5.233856 6.341583,7.846161c0.002106,0.000702 0.027679,0.008331 0.030182,0.008087c12.263519,-12.289825 27.040344,-21.501495 39.303833,-33.791321c12.263519,-12.289856 22.027313,-27.665222 34.290833,-39.955078c12.263489,-12.289856 27.032227,-21.471283 39.295715,-33.761139c12.26355,-12.289856 22.005249,-27.703491 34.268738,-39.993347zm-345.272858,-90.283264c4.762238,16.651939 13.234268,31.874306 17.990387,48.52858c4.76004,16.667984 5.782837,34.782593 10.542847,51.450577c4.76004,16.667984 13.252472,31.898865 18.012482,48.566849c4.76004,16.667999 5.782837,34.782578 10.542847,51.450577c0.00177,0.002319 0.028137,0.006622 0.030212,0.008087c3.138153,-1.20462 6.276886,-2.419556 9.41507,-3.624207c3.138153,-1.20462 6.268799,-2.389374 9.406982,-3.593994c3.138153,-1.20462 6.276917,-2.419586 9.41507,-3.624207c3.138153,-1.20462 6.276917,-2.419556 9.41507,-3.624176c-0.000305,-0.002899 0.009247,-0.027161 0.008087,-0.030182c-7.898712,-15.46106 -12.067322,-32.335144 -19.966003,-47.796204c-7.898712,-15.461075 -19.520782,-29.51178 -27.419495,-44.972839c-7.898682,-15.461075 -12.067291,-32.335129 -19.966003,-47.796204c-7.898712,-15.461067 -19.528854,-29.48159 -27.427551,-44.942657zm413.587921,265.044342c-17.323181,-0.623627 -34.425354,2.739746 -51.748535,2.116119c-17.32312,-0.623657 -34.874695,-5.24231 -52.197876,-5.865936c-17.32312,-0.623627 -34.425293,2.739746 -51.748444,2.116119c-17.323151,-0.623657 -34.844574,-5.234222 -52.167725,-5.857849c-0.003235,0.000183 -0.027374,-0.009033 -0.030182,-0.008087c-0.002747,0.000916 -0.006042,0.028656 -0.008087,0.030182c0.175934,3.356812 0.359558,6.718842 0.535492,10.075653c0.175934,3.356812 0.359558,6.718842 0.535461,10.075653c0.175934,3.356842 0.329346,6.710785 0.50528,10.067566c0.175934,3.356842 0.359558,6.718872 0.535492,10.075684c0.002167,0.001282 0.027344,0.007416 0.030182,0.008087c17.145172,-2.734375 34.48703,-1.483429 51.632233,-4.217804c17.145203,-2.734406 34.097961,-9.44931 51.243164,-12.183716c17.145203,-2.734375 34.487061,-1.483429 51.632263,-4.217804c17.145203,-2.734375 34.097961,-9.44928 51.243164,-12.183685c0.003235,-0.000153 0.00531,-0.029266 0.008118,-0.030182zm-558.689774,-146.10936c13.64299,10.67717 29.463455,18.015579 43.104034,28.696472c13.648148,10.686798 25.097778,24.73584 38.745926,35.422668c13.648163,10.686813 29.486069,18.017715 43.134232,28.704544c13.648148,10.686798 25.097748,24.73587 38.745926,35.422668c0.002716,0.00177 0.027405,0.007233 0.030182,0.008087c1.83075,-2.819122 3.670776,-5.638916 5.501556,-8.458038c1.83075,-2.819122 3.670776,-5.638885 5.501556,-8.458038c1.83078,-2.819122 3.640625,-5.647003 5.471375,-8.466125c1.83078,-2.819122 3.670807,-5.638916 5.501556,-8.458038c-0.000977,-0.00235 0.01004,-0.027985 0.008118,-0.030182c-15.477997,-7.865509 -28.8078,-19.077057 -44.285767,-26.942551c-15.477997,-7.865509 -33.127625,-12.37291 -48.605606,-20.238419c-15.477997,-7.865524 -28.769501,-19.099121 -44.247498,-26.96463c-15.477982,-7.865524 -33.127617,-12.372879 -48.605591,-20.238419zm158.246384,148.711929c-17.145203,2.734375 -34.48703,1.483429 -51.632233,4.217804c-17.145187,2.734375 -34.067825,9.457397 -51.212997,12.191772c-17.145203,2.734375 -34.517227,1.475342 -51.662415,4.209717c-17.145203,2.734406 -34.067802,9.457397 -51.213001,12.191772c-0.003242,0.000183 -0.02742,-0.009003 -0.03019,-0.008057c-0.002762,0.000916 -0.00605,0.028656 -0.008091,0.030151c17.323139,0.623657 34.425339,-2.739716 51.748482,-2.116089c17.323128,0.623627 34.874748,5.242279 52.197884,5.865936c17.323135,0.623627 34.433426,-2.769928 51.756561,-2.146301c17.323151,0.623627 34.866684,5.272461 52.189804,5.896118c0.003235,-0.000183 0.00531,-0.029266 0.008072,-0.030182c-0.175919,-3.356842 -0.359528,-6.718842 -0.535461,-10.075653c-0.175919,-3.356842 -0.329361,-6.710754 -0.505295,-10.067596c-0.175919,-3.356812 -0.359543,-6.718842 -0.535461,-10.075653c-0.175919,-3.356842 -0.359543,-6.718811 -0.535477,-10.075653c-0.002853,-0.000641 -0.026932,-0.00827 -0.030182,-0.008087zm189.170532,50.68808c-1.83078,2.819122 -3.670807,5.638885 -5.501556,8.458038c-1.83078,2.819122 -3.640594,5.646973 -5.471375,8.466125c-1.83078,2.819153 -3.670807,5.638947 -5.501587,8.458038c-1.83075,2.819153 -3.670776,5.638916 -5.501556,8.458038c0.001923,0.002197 0.019379,0.03653 0.022095,0.0383c15.477997,7.865509 28.777588,19.068909 44.255585,26.934448c15.477997,7.865509 33.127594,12.372864 48.605591,20.238403c15.478027,7.86554 28.769531,19.099121 44.247498,26.96463c15.478027,7.86554 33.127625,12.372925 48.605591,20.238434c0.002747,0.00177 0.027405,0.007202 0.030212,0.008057c0.002014,-0.000916 0.006897,-0.02832 0.008057,-0.030151c-13.648132,-10.686829 -29.455872,-18.009644 -43.104004,-28.696472c-13.648132,-10.686798 -25.136047,-24.713776 -38.78418,-35.400574c-13.648193,-10.686829 -29.486115,-18.017731 -43.134277,-28.704529c-13.648163,-10.686829 -25.097748,-24.73587 -38.745911,-35.422699c-0.002777,-0.000854 -0.027618,-0.008087 -0.030182,-0.008087zm-179.455322,9.405273c-12.263489,12.289856 -27.032227,21.471313 -39.295731,33.761139c-12.263519,12.289856 -22.005219,27.703522 -34.268723,39.993347c-12.263504,12.289856 -27.062408,21.463196 -39.325928,33.753052c-12.263519,12.289886 -22.005203,27.703522 -34.268715,39.993378c14.381256,-9.677734 26.229042,-22.469421 40.610313,-32.147156c14.381241,-9.677765 31.28627,-16.229156 45.667526,-25.906921c14.381256,-9.677734 26.259232,-22.461304 40.640488,-32.139069c14.381271,-9.677765 31.264175,-16.267395 45.645432,-25.94516c-2.115417,-2.612305 -4.226166,-5.233856 -6.341583,-7.846161c-2.115417,-2.612305 -4.226196,-5.233856 -6.341614,-7.846191c-2.115417,-2.612305 -4.234283,-5.203674 -6.34967,-7.815979c-2.115417,-2.612335 -4.226166,-5.233856 -6.341583,-7.846191c-0.002563,0.000244 -0.027527,-0.009216 -0.030212,-0.008087zm140.994995,37.77951c-3.138153,1.20462 -6.276917,2.419586 -9.41507,3.624176c-3.138153,1.20462 -6.268799,2.389374 -9.406982,3.593994c-3.138153,1.204651 -6.276886,2.419586 -9.41507,3.624207c-3.138184,1.20462 -6.276886,2.419556 -9.41507,3.624207c7.898712,15.46106 12.059204,32.365295 19.957916,47.826355c7.898712,15.461121 19.528839,29.481628 27.427551,44.942688c7.898712,15.46106 12.059235,32.365295 19.957947,47.826355c7.898682,15.46106 19.528839,29.481628 27.427551,44.942688c-4.762268,-16.651917 -13.226196,-31.904541 -17.9823,-48.558777c-4.76004,-16.667969 -5.790924,-34.75238 -10.550934,-51.42041c-4.76004,-16.667969 -13.252472,-31.898865 -18.012512,-48.566833c-4.76001,-16.667999 -5.782806,-34.782593 -10.542847,-51.450592c-0.002075,-0.001465 -0.028015,-0.00766 -0.030182,-0.008057zm-97.781097,5.11673c-0.002136,0.000641 -0.036407,0.020416 -0.0383,0.022095c-2.697571,17.151001 -9.255463,33.254059 -11.953064,50.40506c-2.697601,17.151031 -1.536194,35.354828 -4.233795,52.505829c-2.697571,17.151001 -9.255463,33.254089 -11.953064,50.40509c-2.697601,17.151001 -1.536163,35.354736 -4.233765,52.505798c0.000824,0.00238 0.028687,0.00647 0.030182,0.008057c5.946259,-16.282532 8.029236,-33.580566 13.975494,-49.863159c5.946259,-16.282532 15.734528,-31.54834 21.680786,-47.830872c5.946259,-16.282593 8.029236,-33.580627 13.975494,-49.86319c5.946259,-16.282562 15.764771,-31.540253 21.710999,-47.822815c-0.000824,-0.002411 0.009583,-0.028534 0.008087,-0.030182c-3.246887,-0.869995 -6.502899,-1.742432 -9.749817,-2.612457c-3.246887,-0.869995 -6.50293,-1.742432 -9.749817,-2.612457c-3.246887,-0.869995 -6.50293,-1.742432 -9.749817,-2.612457c-3.246887,-0.869995 -6.472717,-1.734344 -9.719604,-2.60434z" id="use10650"/>
   <path opacity="0.3" fill="#ff7f00" fill-rule="nonzero" stroke-width="13" stroke-linecap="round" stroke-linejoin="round" marker-start="none" marker-mid="none" marker-end="none" stroke-miterlimit="4" stroke-dashoffset="0" d="m332.797394,85.8339c-0.800262,14.398453 2.374664,28.608002 1.568665,43.006752c-0.80658,14.409103 -5.613068,29.030701 -6.419647,43.439835c-0.806549,14.409119 2.375275,28.59761 1.568695,43.006744c-0.80658,14.409119 -5.613068,29.030716 -6.419647,43.43985c0.001495,0.001678 0.029266,-0.002441 0.031219,-0.001587c3.357178,-0.168854 6.692596,-0.336609 10.049774,-0.505493c3.357178,-0.168854 6.723816,-0.338196 10.081024,-0.50705c3.357178,-0.168884 6.723846,-0.338196 10.080994,-0.50708c3.357178,-0.168854 6.723816,-0.338196 10.081024,-0.50705c-2.551849,-14.238571 -1.109558,-28.694199 -3.661377,-42.93277c-2.551819,-14.238571 -9.09787,-28.261108 -11.649689,-42.499695c-2.551819,-14.238571 -1.109528,-28.694214 -3.661346,-42.932785c-2.551849,-14.238556 -9.09787,-28.261101 -11.649689,-42.499672zm159.335327,41.861107c-0.005066,0.006172 0.006592,0.02504 0.001556,0.031212c0.001465,-0.002258 0.030579,0.000824 0.031219,-0.001572c-0.000214,-0.002235 -0.000549,-0.029366 -0.001587,-0.031204c-0.001007,-0.001854 -0.029388,0.002747 -0.031189,0.001564zm0.001556,0.031212c-9.113251,11.179375 -14.900177,24.543388 -24.017151,35.72036c-9.122009,11.183105 -21.591217,20.180618 -30.713226,31.363724c-9.121979,11.183151 -14.895111,24.537216 -24.017151,35.720367c-9.121979,11.183121 -21.591217,20.180603 -30.713196,31.363739c-0.00061,0.00238 0.001343,0.028961 0.001556,0.031189c2.815277,1.8367 5.628937,3.683594 8.444214,5.520294c2.815277,1.83667 5.62738,3.652344 8.442657,5.489044c2.815277,1.8367 5.660156,3.682037 8.475433,5.518707c2.815277,1.8367 5.628967,3.683594 8.444244,5.520264c0.001923,-0.001495 -0.003052,-0.028931 -0.001587,-0.031189c6.304749,-13.019196 15.96582,-23.833618 22.270569,-36.852798c6.304749,-13.01918 9.268188,-28.221466 15.572937,-41.240631c6.304749,-13.01918 15.964264,-23.864838 22.268982,-36.884003c6.304749,-13.01918 9.236969,-28.219879 15.541718,-41.239067zm-312.903793,17.866341c7.81694,12.131317 18.731873,21.765274 26.548813,33.896606c7.816925,12.131302 12.537994,26.770279 20.354935,38.901596c7.81694,12.131317 18.730301,21.734085 26.547256,33.865402c7.816925,12.131317 12.537994,26.770264 20.354919,38.901581c0.001709,0.002106 -0.000488,0.029877 0.001587,0.031219c0.002075,-0.000427 0.02951,-0.000214 0.031189,-0.001587c2.616791,-2.109894 5.230927,-4.229828 7.847687,-6.339722c2.61676,-2.109924 5.230927,-4.229828 7.847687,-6.339752c2.61676,-2.109894 5.232513,-4.198578 7.849243,-6.308502c2.616791,-2.109924 5.230927,-4.229828 7.847687,-6.339752c-0.000031,-0.002258 -0.000732,-0.02887 -0.001556,-0.031189c-10.433685,-10.019348 -17.768951,-22.542542 -28.202606,-32.561859c-10.433716,-10.019318 -23.96283,-17.537567 -34.39653,-27.556885c-10.433685,-10.019318 -17.768906,-22.542542 -28.202591,-32.561844c-10.433701,-10.019318 -23.962814,-17.537582 -34.396515,-27.556885c-0.002075,-0.001312 -0.029007,0.00206 -0.031204,0.001572zm417.224045,109.679153c-13.953186,3.685562 -26.479431,11.114243 -40.432617,14.79982c-13.953064,3.685577 -29.328064,3.622894 -43.28125,7.308472c-13.953125,3.685577 -26.479401,11.114258 -40.432556,14.799835c-13.953156,3.685547 -29.328094,3.622894 -43.28125,7.308472c-0.002533,0.000946 -0.029327,0 -0.031219,0.001556c-0.001129,0.001953 0.001801,0.029114 0.001587,0.031219c1.198029,3.140686 2.404968,6.283966 3.602997,9.424652c1.197998,3.140656 2.404968,6.283936 3.602997,9.424652c1.198029,3.140686 2.372192,6.254303 3.570221,9.39502c1.197998,3.140686 2.404968,6.283936 3.602997,9.424652c0.000763,0.002014 -0.000031,0.029785 0.001556,0.031189c0.002136,0.000702 0.028778,-0.001495 0.031219,-0.001556c12.753143,-6.826904 26.923553,-9.937469 39.676666,-16.764343c12.753143,-6.826904 24.078064,-17.366394 36.831177,-24.193268c12.753113,-6.826904 26.923584,-9.937469 39.676697,-16.764313c12.753113,-6.826904 24.107605,-17.39917 36.860779,-24.226059zm-506.279259,28.938309c13.44706,5.211151 27.918671,6.595703 41.364357,11.811981c13.45462,5.219757 25.887955,14.297241 39.342606,19.516998c13.454651,5.219757 27.940903,6.590637 41.395569,11.810394c13.454651,5.219757 25.856735,14.298828 39.311401,19.518585c0.002594,0.000702 0.028748,-0.001434 0.031204,-0.001556c0.00145,-0.001556 -0.002121,-0.029114 -0.001572,-0.031219c0.876831,-3.245056 1.762283,-6.493561 2.639114,-9.738617c0.876816,-3.245056 1.76384,-6.462341 2.640671,-9.707428c0.876831,-3.245026 1.731079,-6.491974 2.60791,-9.73703c0.876831,-3.245056 1.762268,-6.493561 2.639099,-9.738617c-0.000427,-0.002075 -0.000214,-0.029388 -0.001556,-0.031219c-14.330261,-1.973022 -27.620255,-7.806915 -41.950516,-9.779968c-14.330246,-1.973022 -29.704422,-0.098755 -44.034683,-2.071777c-14.330231,-1.973022 -27.62027,-7.806946 -41.9505,-9.779938c-14.330254,-1.973053 -29.70285,-0.067535 -44.033104,-2.040588zm162.415489,82.570282c-12.753143,6.826904 -26.925125,9.906219 -39.678253,16.733124c-12.753128,6.826904 -24.076447,17.397583 -36.829575,24.224487c-12.753128,6.826904 -26.923569,9.937439 -39.676697,16.764313c-12.753128,6.826904 -24.078003,17.366394 -36.831131,24.193268c-0.002525,0.000977 -0.029312,0.000031 -0.031227,0.001587c-0.001884,0.001556 0.002716,0.029266 0.001587,0.031219c13.953133,-3.685577 26.479424,-11.114258 40.432564,-14.799835c13.95311,-3.685577 29.32811,-3.622894 43.281265,-7.308472c13.953125,-3.685577 26.479431,-11.114258 40.432571,-14.799835c13.95314,-3.685547 29.359329,-3.624481 43.312469,-7.310028c0.001892,-0.001587 -0.002747,-0.029266 -0.001587,-0.031219c-1.198029,-3.140686 -2.404968,-6.283936 -3.602997,-9.424652c-1.197998,-3.140656 -2.373749,-6.285522 -3.571777,-9.426208c-1.198029,-3.140717 -2.404968,-6.283997 -3.602997,-9.424652c-1.198029,-3.140686 -2.404968,-6.283966 -3.603012,-9.424652c-0.002441,0.000092 -0.028656,0.00058 -0.031204,0.001556zm191.788788,-9.646729c-0.876831,3.245056 -1.762268,6.493561 -2.639099,9.738647c-0.876831,3.245026 -1.731079,6.491974 -2.60791,9.73703c-0.876831,3.245056 -1.762268,6.493591 -2.639099,9.738617c-0.876831,3.245056 -1.762299,6.493591 -2.639099,9.738617c0.001312,0.001831 -0.000488,0.029877 0.001556,0.031219c0.002045,0.001373 0.028625,-0.002258 0.031219,-0.001556c14.330261,1.973022 27.620239,7.806915 41.9505,9.779938c14.330261,1.973022 29.702881,0.067566 44.033112,2.040588c14.330261,1.973022 27.58905,7.808472 41.919312,9.781525c14.330261,1.973022 29.704468,0.098755 44.034668,2.071777c-13.447083,-5.211151 -27.918701,-6.595703 -41.36438,-11.811981c-13.45459,-5.219757 -25.85675,-14.298828 -39.311401,-19.518585c-13.45462,-5.219757 -27.972076,-6.58905 -41.426758,-11.808807c-13.454651,-5.219757 -25.85675,-14.298828 -39.311401,-19.518585c-0.002441,0.000153 -0.029144,0.000641 -0.031219,0.001556zm-164.861237,62.892517c-6.304749,13.019165 -15.964233,23.864838 -22.268982,36.884003c-6.304749,13.019165 -9.268188,28.221436 -15.572922,41.240601c-6.304764,13.019196 -15.964249,23.864868 -22.268997,36.884033c-6.304733,13.019165 -9.236969,28.21991 -15.541718,41.239075c9.113403,-11.179443 14.900101,-24.543274 24.017151,-35.720398c9.121994,-11.183105 21.591217,-20.180603 30.713226,-31.363708c9.121979,-11.183136 14.895142,-24.537201 24.017151,-35.720367c9.121979,-11.183105 21.591187,-20.180603 30.713196,-31.363739c0.001495,-0.002258 -0.002197,-0.028809 -0.001556,-0.031189c-2.815277,-1.8367 -5.628967,-3.683594 -8.444214,-5.520294c-2.815277,-1.83667 -5.628967,-3.683563 -8.444244,-5.520264c-2.815277,-1.8367 -5.62738,-3.652374 -8.442627,-5.489075c-2.815277,-1.83667 -5.628967,-3.683563 -8.444244,-5.520264c-0.001831,-0.00119 -0.029083,0.00177 -0.031219,0.001587zm143.443665,-7.215057c-2.61676,2.109924 -5.230896,4.229828 -7.847687,6.339752c-2.61676,2.109894 -5.263672,4.200195 -7.880463,6.310089c-2.61676,2.109924 -5.230896,4.229828 -7.847656,6.339722c-2.616791,2.109924 -5.230927,4.229828 -7.847687,6.339752c0.000854,0.002289 -0.000122,0.029114 0.001556,0.031219c10.433716,10.019318 17.768921,22.542511 28.202606,32.561829c10.433716,10.019318 23.96283,17.537567 34.396515,27.556885c10.433685,10.019318 17.768951,22.542542 28.202606,32.561829c10.433685,10.019348 23.961273,17.506409 34.394928,27.525696c-7.815338,-12.114441 -18.706787,-21.747559 -26.516022,-33.867004c-7.816925,-12.131287 -12.538025,-26.770233 -20.354919,-38.90155c-7.816956,-12.131348 -18.731873,-21.76532 -26.548828,-33.896637c-7.816925,-12.131287 -12.538025,-26.770233 -20.35495,-38.901581zm-90.383057,34.458923c-0.001312,0.001831 0.002228,0.02887 0.001556,0.031219c2.551849,14.238586 1.107971,28.662994 3.65979,42.90155c2.551849,14.238586 9.099457,28.292328 11.651276,42.530914c2.551819,14.238586 1.107971,28.662964 3.65979,42.90155c2.551819,14.238586 9.099426,28.292358 11.651245,42.530884c0.001495,0.001709 0.029327,-0.00238 0.031219,-0.001526c0.80658,-14.409119 -2.375244,-28.597656 -1.568695,-43.006775c0.80658,-14.409119 5.581848,-29.029175 6.388458,-43.438232c0.806549,-14.409119 -2.375275,-28.597656 -1.568695,-43.006775c0.80658,-14.409119 5.613098,-29.030701 6.419647,-43.43985c-0.000916,-0.002289 -0.000061,-0.02951 -0.001556,-0.031189c-3.357208,0.168854 -6.723816,0.338196 -10.081024,0.50705c-3.357178,0.168854 -6.723816,0.338196 -10.080994,0.50705c-3.357178,0.168884 -6.723846,0.338226 -10.080994,0.50708c-3.357208,0.168854 -6.692627,0.336639 -10.049805,0.505493c-0.001831,0.001068 -0.029907,-0.000275 -0.031219,0.001556z" id="use10702"/>
   <path fill="url(#radialGradient13449)" fill-rule="nonzero" stroke-width="13" stroke-linecap="round" stroke-linejoin="round" marker-start="none" marker-mid="none" marker-end="none" stroke-miterlimit="4" stroke-dashoffset="0" id="path7095" d="m493.32962,351.996704c0,80.261444 -65.064758,145.326172 -145.326202,145.326172c-80.261444,0 -145.326202,-65.064728 -145.326202,-145.326172c0,-80.261444 65.064758,-145.326218 145.326202,-145.326218c80.261444,0 145.326202,65.064774 145.326202,145.326218z"/>
   <path fill="url(#radialGradient18406)" fill-rule="nonzero" stroke-width="13" stroke-linecap="round" stroke-linejoin="round" marker-start="none" marker-mid="none" marker-end="none" stroke-miterlimit="4" stroke-dashoffset="0" d="m318.399719,257.803711c0,37.15802 -30.122528,67.280548 -67.280533,67.280548c-37.15802,0 -67.280548,-30.122528 -67.280548,-67.280548c0,-37.158005 30.122528,-67.280533 67.280548,-67.280533c37.158005,0 67.280533,30.122528 67.280533,67.280533z" id="path18404"/>
  </g>
  <text font-size="19.931217px" font-style="normal" font-weight="normal" text-anchor="start" fill="#89b1c5" stroke-width="1px" font-family="Bitstream Vera Sans" id="text18416" y="726.62439" x="487.06195" xml:space="preserve">
   <tspan y="726.62439" x="487.06195" id="tspan18418">http://aurium.cjb.net</tspan>
  </text>
 </g>
</svg>